<svg width="85" height="85" xmlns="http://www.w3.org/2000/svg" xmlns:xlink="http://www.w3.org/1999/xlink" xml:space="preserve" overflow="hidden"><g transform="translate(-593 -389)"><g><g><g><g><path d="M672.581 400.839 672.581 395.419 667.161 395.419 667.161 390 594 390 594 463.161 599.419 463.161 599.419 468.581 604.839 468.581 604.839 474 678 474 678 400.839 672.581 400.839ZM599.419 460.452 596.71 460.452 596.71 392.71 664.452 392.71 664.452 395.419 599.419 395.419 599.419 460.452ZM604.839 465.871 602.129 465.871 602.129 398.129 669.871 398.129 669.871 400.839 604.839 400.839 604.839 465.871ZM675.29 471.29 607.548 471.29 607.548 414.387 675.29 414.387 675.29 471.29ZM675.29 411.677 607.548 411.677 607.548 403.548 675.29 403.548 675.29 411.677Z" stroke="#000000" stroke-width="1.33333" stroke-linecap="butt" stroke-linejoin="miter" stroke-miterlimit="4" stroke-opacity="1" fill="#FFFFFF" fill-rule="nonzero" fill-opacity="1"/><path d="M610.258 406.258 612.968 406.258 612.968 408.968 610.258 408.968Z" stroke="#000000" stroke-width="1.33333" stroke-linecap="butt" stroke-linejoin="miter" stroke-miterlimit="4" stroke-opacity="1" fill="#FFFFFF" fill-rule="nonzero" fill-opacity="1"/><path d="M615.677 406.258 618.387 406.258 618.387 408.968 615.677 408.968Z" stroke="#000000" stroke-width="1.33333" stroke-linecap="butt" stroke-linejoin="miter" stroke-miterlimit="4" stroke-opacity="1" fill="#FFFFFF" fill-rule="nonzero" fill-opacity="1"/><path d="M621.097 406.258 623.806 406.258 623.806 408.968 621.097 408.968Z" stroke="#000000" stroke-width="1.33333" stroke-linecap="butt" stroke-linejoin="miter" stroke-miterlimit="4" stroke-opacity="1" fill="#FFFFFF" fill-rule="nonzero" fill-opacity="1"/><path d="M615.677 449.613 620.843 449.613C621.182 450.645 621.594 451.644 622.076 452.6L618.426 456.25 628.006 465.83 631.656 462.18C632.613 462.661 633.613 463.075 634.645 463.413L634.645 468.581 648.194 468.581 648.194 463.415C649.226 463.076 650.226 462.663 651.182 462.182L654.832 465.832 664.412 456.252 660.762 452.602C661.245 451.645 661.657 450.647 661.995 449.614L667.161 449.614 667.161 444.195 672.581 444.195 672.581 441.485 610.258 441.485 610.258 444.194 615.677 444.194 615.677 449.613ZM650.795 444.194C650.134 448.781 646.187 452.323 641.419 452.323 636.652 452.323 632.705 448.781 632.044 444.194L650.795 444.194ZM618.387 444.194 629.306 444.194C629.983 450.281 635.155 455.032 641.419 455.032 647.684 455.032 652.857 450.281 653.533 444.194L664.452 444.194 664.452 446.903 659.958 446.903 659.683 447.896C659.265 449.408 658.671 450.849 657.914 452.178L657.405 453.075 660.579 456.25 654.831 461.999 651.656 458.823 650.76 459.334C649.431 460.089 647.989 460.683 646.477 461.102L645.484 461.378 645.484 465.871 637.355 465.871 637.355 461.378 636.362 461.103C634.85 460.685 633.408 460.09 632.079 459.335L631.182 458.824 628.008 462 622.259 456.252 625.434 453.076 624.924 452.179C624.168 450.85 623.573 449.41 623.156 447.898L622.881 446.903 618.387 446.903 618.387 444.194Z" stroke="#000000" stroke-width="1.33333" stroke-linecap="butt" stroke-linejoin="miter" stroke-miterlimit="4" stroke-opacity="1" fill="#FFFFFF" fill-rule="nonzero" fill-opacity="1"/><path d="M631.539 436.461 623.013 427.935 631.539 419.409 629.623 417.494 619.181 427.935 629.623 438.377Z" stroke="#000000" stroke-width="1.33333" stroke-linecap="butt" stroke-linejoin="miter" stroke-miterlimit="4" stroke-opacity="1" fill="#FFFFFF" fill-rule="nonzero" fill-opacity="1"/><path d="M653.216 438.377 663.658 427.935 653.216 417.494 651.3 419.409 659.826 427.935 651.3 436.461Z" stroke="#000000" stroke-width="1.33333" stroke-linecap="butt" stroke-linejoin="miter" stroke-miterlimit="4" stroke-opacity="1" fill="#FFFFFF" fill-rule="nonzero" fill-opacity="1"/><path d="M647.089 417.661 649.294 419.235 635.751 438.207 633.546 436.633Z" stroke="#000000" stroke-width="1.33333" stroke-linecap="butt" stroke-linejoin="miter" stroke-miterlimit="4" stroke-opacity="1" fill="#FFFFFF" fill-rule="nonzero" fill-opacity="1"/></g></g></g></g></g></svg>