<svg width="84" height="85" xmlns="http://www.w3.org/2000/svg" xmlns:xlink="http://www.w3.org/1999/xlink" xml:space="preserve" overflow="hidden"><g transform="translate(-976 -389)"><g><g><g><g><path d="M1054.58 403.685 1054.58 390 981.419 390 981.419 403.685C978.332 404.315 976 407.052 976 410.323L976 459.097C976 462.832 979.039 465.871 982.774 465.871L1001.74 465.871 1001.74 471.29 996.323 471.29 996.323 474 1039.68 474 1039.68 471.29 1034.26 471.29 1034.26 465.871 1053.23 465.871C1056.96 465.871 1060 462.832 1060 459.097L1060 410.323C1060 407.052 1057.67 404.315 1054.58 403.685ZM984.129 392.71 1051.87 392.71 1051.87 400.839 1028.84 400.839 1028.84 400.874C1026.37 397.571 1022.43 395.419 1018 395.419 1013.58 395.419 1009.66 397.556 1007.19 400.839L984.129 400.839 984.129 392.71ZM1031.55 425.226 1031.55 427.935 1028.84 427.935 1028.84 430.645 1031.55 430.645 1031.55 433.355 1028.84 433.355 1028.84 436.065 1031.55 436.065 1031.55 438.774 1028.84 438.774 1028.84 441.484 1031.55 441.484 1031.55 444.194 1004.45 444.194 1004.45 441.484 1007.16 441.484 1007.16 438.774 1004.45 438.774 1004.45 436.065 1007.16 436.065 1007.16 433.355 1004.45 433.355 1004.45 430.645 1007.16 430.645 1007.16 427.935 1004.45 427.935 1004.45 425.226 1007.16 425.226 1007.16 422.516 1004.45 422.516 1004.45 419.806 1031.55 419.806 1031.55 422.516 1028.84 422.516 1028.84 425.226 1031.55 425.226ZM1018 400.839C1013.52 400.839 1009.87 404.485 1009.87 408.968L1009.87 417.097 1007.16 417.097 1007.16 408.968C1007.16 402.992 1012.02 398.129 1018 398.129 1023.98 398.129 1028.84 402.992 1028.84 408.968L1028.84 417.097 1026.13 417.097 1026.13 408.968C1026.13 404.485 1022.48 400.839 1018 400.839ZM1023.42 408.968 1023.42 417.097 1012.58 417.097 1012.58 408.968C1012.58 405.979 1015.01 403.548 1018 403.548 1020.99 403.548 1023.42 405.979 1023.42 408.968ZM984.129 403.548 1005.59 403.548C1004.86 405.209 1004.45 407.041 1004.45 408.968L1004.45 417.097 1001.74 417.097 1001.74 446.903 1034.26 446.903 1034.26 417.097 1031.55 417.097 1031.55 408.968C1031.55 407.041 1031.14 405.209 1030.41 403.548L1051.87 403.548 1051.87 449.613 984.129 449.613 984.129 403.548ZM1031.55 471.29 1004.45 471.29 1004.45 465.871 1031.55 465.871 1031.55 471.29ZM1057.29 459.097C1057.29 461.338 1055.47 463.161 1053.23 463.161L982.774 463.161C980.533 463.161 978.71 461.338 978.71 459.097L978.71 457.742 1057.29 457.742 1057.29 459.097ZM1057.29 455.032 978.71 455.032 978.71 410.323C978.71 408.559 979.846 407.068 981.419 406.507L981.419 452.323 1054.58 452.323 1054.58 406.507C1056.15 407.068 1057.29 408.559 1057.29 410.323L1057.29 455.032Z" stroke="#000000" stroke-width="1.33333" stroke-linecap="butt" stroke-linejoin="miter" stroke-miterlimit="4" stroke-opacity="1" fill="#FFFFFF" fill-rule="nonzero" fill-opacity="1"/><path d="M986.839 395.419 989.548 395.419 989.548 398.129 986.839 398.129Z" stroke="#000000" stroke-width="1.33333" stroke-linecap="butt" stroke-linejoin="miter" stroke-miterlimit="4" stroke-opacity="1" fill="#FFFFFF" fill-rule="nonzero" fill-opacity="1"/><path d="M992.258 395.419 994.968 395.419 994.968 398.129 992.258 398.129Z" stroke="#000000" stroke-width="1.33333" stroke-linecap="butt" stroke-linejoin="miter" stroke-miterlimit="4" stroke-opacity="1" fill="#FFFFFF" fill-rule="nonzero" fill-opacity="1"/><path d="M997.677 395.419 1000.39 395.419 1000.39 398.129 997.677 398.129Z" stroke="#000000" stroke-width="1.33333" stroke-linecap="butt" stroke-linejoin="miter" stroke-miterlimit="4" stroke-opacity="1" fill="#FFFFFF" fill-rule="nonzero" fill-opacity="1"/><path d="M1018 422.516C1015.01 422.516 1012.58 424.947 1012.58 427.935 1012.58 430.453 1014.31 432.557 1016.65 433.162L1016.65 441.484 1019.35 441.484 1019.35 433.162C1021.69 432.557 1023.42 430.453 1023.42 427.935 1023.42 424.947 1020.99 422.516 1018 422.516ZM1018 430.645C1016.51 430.645 1015.29 429.43 1015.29 427.935 1015.29 426.441 1016.51 425.226 1018 425.226 1019.49 425.226 1020.71 426.441 1020.71 427.935 1020.71 429.43 1019.49 430.645 1018 430.645Z" stroke="#000000" stroke-width="1.33333" stroke-linecap="butt" stroke-linejoin="miter" stroke-miterlimit="4" stroke-opacity="1" fill="#FFFFFF" fill-rule="nonzero" fill-opacity="1"/><path d="M1041.03 411.677C1038.79 411.677 1036.97 413.501 1036.97 415.742 1036.97 417.983 1038.79 419.806 1041.03 419.806 1042.8 419.806 1044.29 418.67 1044.85 417.097L1049.16 417.097 1049.16 414.387 1044.85 414.387C1044.29 412.814 1042.8 411.677 1041.03 411.677ZM1041.03 417.097C1040.28 417.097 1039.68 416.488 1039.68 415.742 1039.68 414.995 1040.28 414.387 1041.03 414.387 1041.78 414.387 1042.39 414.995 1042.39 415.742 1042.39 416.488 1041.78 417.097 1041.03 417.097Z" stroke="#000000" stroke-width="1.33333" stroke-linecap="butt" stroke-linejoin="miter" stroke-miterlimit="4" stroke-opacity="1" fill="#FFFFFF" fill-rule="nonzero" fill-opacity="1"/><path d="M1041.03 425.226C1038.79 425.226 1036.97 427.049 1036.97 429.29 1036.97 431.531 1038.79 433.355 1041.03 433.355 1042.8 433.355 1044.29 432.218 1044.85 430.645L1049.16 430.645 1049.16 427.935 1044.85 427.935C1044.29 426.363 1042.8 425.226 1041.03 425.226ZM1041.03 430.645C1040.28 430.645 1039.68 430.037 1039.68 429.29 1039.68 428.544 1040.28 427.935 1041.03 427.935 1041.78 427.935 1042.39 428.544 1042.39 429.29 1042.39 430.037 1041.78 430.645 1041.03 430.645Z" stroke="#000000" stroke-width="1.33333" stroke-linecap="butt" stroke-linejoin="miter" stroke-miterlimit="4" stroke-opacity="1" fill="#FFFFFF" fill-rule="nonzero" fill-opacity="1"/><path d="M1041.03 438.774C1038.79 438.774 1036.97 440.598 1036.97 442.839 1036.97 445.08 1038.79 446.903 1041.03 446.903 1042.8 446.903 1044.29 445.767 1044.85 444.194L1049.16 444.194 1049.16 441.484 1044.85 441.484C1044.29 439.911 1042.8 438.774 1041.03 438.774ZM1041.03 444.194C1040.28 444.194 1039.68 443.585 1039.68 442.839 1039.68 442.092 1040.28 441.484 1041.03 441.484 1041.78 441.484 1042.39 442.092 1042.39 442.839 1042.39 443.585 1041.78 444.194 1041.03 444.194Z" stroke="#000000" stroke-width="1.33333" stroke-linecap="butt" stroke-linejoin="miter" stroke-miterlimit="4" stroke-opacity="1" fill="#FFFFFF" fill-rule="nonzero" fill-opacity="1"/><path d="M994.968 411.677C993.204 411.677 991.713 412.814 991.153 414.387L986.839 414.387 986.839 417.097 991.153 417.097C991.713 418.67 993.204 419.806 994.968 419.806 997.209 419.806 999.032 417.983 999.032 415.742 999.032 413.501 997.209 411.677 994.968 411.677ZM994.968 417.097C994.22 417.097 993.613 416.488 993.613 415.742 993.613 414.995 994.22 414.387 994.968 414.387 995.716 414.387 996.323 414.995 996.323 415.742 996.323 416.488 995.716 417.097 994.968 417.097Z" stroke="#000000" stroke-width="1.33333" stroke-linecap="butt" stroke-linejoin="miter" stroke-miterlimit="4" stroke-opacity="1" fill="#FFFFFF" fill-rule="nonzero" fill-opacity="1"/><path d="M994.968 425.226C993.204 425.226 991.713 426.363 991.153 427.935L986.839 427.935 986.839 430.645 991.153 430.645C991.713 432.218 993.204 433.355 994.968 433.355 997.209 433.355 999.032 431.531 999.032 429.29 999.032 427.049 997.209 425.226 994.968 425.226ZM994.968 430.645C994.22 430.645 993.613 430.037 993.613 429.29 993.613 428.544 994.22 427.935 994.968 427.935 995.716 427.935 996.323 428.544 996.323 429.29 996.323 430.037 995.716 430.645 994.968 430.645Z" stroke="#000000" stroke-width="1.33333" stroke-linecap="butt" stroke-linejoin="miter" stroke-miterlimit="4" stroke-opacity="1" fill="#FFFFFF" fill-rule="nonzero" fill-opacity="1"/><path d="M994.968 438.774C993.204 438.774 991.713 439.911 991.153 441.484L986.839 441.484 986.839 444.194 991.153 444.194C991.713 445.767 993.204 446.903 994.968 446.903 997.209 446.903 999.032 445.08 999.032 442.839 999.032 440.598 997.209 438.774 994.968 438.774ZM994.968 444.194C994.22 444.194 993.613 443.585 993.613 442.839 993.613 442.092 994.22 441.484 994.968 441.484 995.716 441.484 996.323 442.092 996.323 442.839 996.323 443.585 995.716 444.194 994.968 444.194Z" stroke="#000000" stroke-width="1.33333" stroke-linecap="butt" stroke-linejoin="miter" stroke-miterlimit="4" stroke-opacity="1" fill="#FFFFFF" fill-rule="nonzero" fill-opacity="1"/></g></g></g></g></g></svg>