<svg width="84" height="85" xmlns="http://www.w3.org/2000/svg" xmlns:xlink="http://www.w3.org/1999/xlink" xml:space="preserve" overflow="hidden"><g transform="translate(-216 -389)"><g><g><g><g><path d="M221.419 422.516 224.129 422.516 224.129 425.226 221.419 425.226Z" stroke="#000000" stroke-width="1.33333" stroke-linecap="butt" stroke-linejoin="miter" stroke-miterlimit="4" stroke-opacity="1" fill="#FFFFFF" fill-rule="nonzero" fill-opacity="1"/><path d="M226.839 390 226.839 417.097 216 417.097 216 474 289.161 474 289.161 446.903 300 446.903 300 390 226.839 390ZM253.935 446.903 253.935 465.871 224.129 465.871 224.129 436.065 226.839 436.065 226.839 446.903 253.935 446.903ZM218.71 419.806 226.839 419.806 226.839 427.935 218.71 427.935 218.71 419.806ZM286.452 471.29 218.71 471.29 218.71 430.645 226.839 430.645 226.839 433.355 221.419 433.355 221.419 468.581 256.645 468.581 256.645 446.903 286.452 446.903 286.452 471.29ZM297.29 444.194 229.548 444.194 229.548 403.548 297.29 403.548 297.29 444.194ZM297.29 400.839 229.548 400.839 229.548 392.71 297.29 392.71 297.29 400.839Z" stroke="#000000" stroke-width="1.33333" stroke-linecap="butt" stroke-linejoin="miter" stroke-miterlimit="4" stroke-opacity="1" fill="#FFFFFF" fill-rule="nonzero" fill-opacity="1"/><path d="M232.258 395.419 234.968 395.419 234.968 398.129 232.258 398.129Z" stroke="#000000" stroke-width="1.33333" stroke-linecap="butt" stroke-linejoin="miter" stroke-miterlimit="4" stroke-opacity="1" fill="#FFFFFF" fill-rule="nonzero" fill-opacity="1"/><path d="M237.677 395.419 240.387 395.419 240.387 398.129 237.677 398.129Z" stroke="#000000" stroke-width="1.33333" stroke-linecap="butt" stroke-linejoin="miter" stroke-miterlimit="4" stroke-opacity="1" fill="#FFFFFF" fill-rule="nonzero" fill-opacity="1"/><path d="M243.097 395.419 245.806 395.419 245.806 398.129 243.097 398.129Z" stroke="#000000" stroke-width="1.33333" stroke-linecap="butt" stroke-linejoin="miter" stroke-miterlimit="4" stroke-opacity="1" fill="#FFFFFF" fill-rule="nonzero" fill-opacity="1"/><path d="M259.355 449.613 283.742 449.613 283.742 452.323 259.355 452.323Z" stroke="#000000" stroke-width="1.33333" stroke-linecap="butt" stroke-linejoin="miter" stroke-miterlimit="4" stroke-opacity="1" fill="#FFFFFF" fill-rule="nonzero" fill-opacity="1"/><path d="M259.355 455.032 283.742 455.032 283.742 457.742 259.355 457.742Z" stroke="#000000" stroke-width="1.33333" stroke-linecap="butt" stroke-linejoin="miter" stroke-miterlimit="4" stroke-opacity="1" fill="#FFFFFF" fill-rule="nonzero" fill-opacity="1"/><path d="M259.355 460.452 283.742 460.452 283.742 463.161 259.355 463.161Z" stroke="#000000" stroke-width="1.33333" stroke-linecap="butt" stroke-linejoin="miter" stroke-miterlimit="4" stroke-opacity="1" fill="#FFFFFF" fill-rule="nonzero" fill-opacity="1"/><path d="M281.032 465.871 283.742 465.871 283.742 468.581 281.032 468.581Z" stroke="#000000" stroke-width="1.33333" stroke-linecap="butt" stroke-linejoin="miter" stroke-miterlimit="4" stroke-opacity="1" fill="#FFFFFF" fill-rule="nonzero" fill-opacity="1"/><path d="M259.355 465.871 278.323 465.871 278.323 468.581 259.355 468.581Z" stroke="#000000" stroke-width="1.33333" stroke-linecap="butt" stroke-linejoin="miter" stroke-miterlimit="4" stroke-opacity="1" fill="#FFFFFF" fill-rule="nonzero" fill-opacity="1"/><path d="M245.806 430.645C252.531 430.645 258 425.176 258 418.452 258 411.728 252.531 406.258 245.806 406.258 239.082 406.258 233.613 411.728 233.613 418.452 233.613 425.176 239.082 430.645 245.806 430.645ZM249.871 427.007C248.637 427.595 247.262 427.935 245.806 427.935 244.351 427.935 242.976 427.595 241.742 427.007L241.742 426.581C241.742 424.34 243.566 422.516 245.806 422.516 248.047 422.516 249.871 424.34 249.871 426.581L249.871 427.007ZM243.097 417.097C243.097 415.602 244.312 414.387 245.806 414.387 247.301 414.387 248.516 415.602 248.516 417.097 248.516 418.591 247.301 419.806 245.806 419.806 244.312 419.806 243.097 418.591 243.097 417.097ZM245.806 408.968C251.035 408.968 255.29 413.223 255.29 418.452 255.29 421.099 254.197 423.493 252.442 425.215 252.081 423.454 251.032 421.939 249.592 420.965 250.597 419.981 251.226 418.613 251.226 417.097 251.226 414.108 248.795 411.677 245.806 411.677 242.818 411.677 240.387 414.108 240.387 417.097 240.387 418.613 241.016 419.981 242.021 420.965 240.579 421.939 239.532 423.454 239.17 425.215 237.416 423.493 236.323 421.099 236.323 418.452 236.323 413.223 240.578 408.968 245.806 408.968Z" stroke="#000000" stroke-width="1.33333" stroke-linecap="butt" stroke-linejoin="miter" stroke-miterlimit="4" stroke-opacity="1" fill="#FFFFFF" fill-rule="nonzero" fill-opacity="1"/><path d="M294.581 406.258 262.065 406.258 262.065 430.645 294.581 430.645 294.581 406.258ZM291.871 427.935 264.774 427.935 264.774 408.968 291.871 408.968 291.871 427.935Z" stroke="#000000" stroke-width="1.33333" stroke-linecap="butt" stroke-linejoin="miter" stroke-miterlimit="4" stroke-opacity="1" fill="#FFFFFF" fill-rule="nonzero" fill-opacity="1"/><path d="M291.871 438.774 294.581 438.774 294.581 441.484 291.871 441.484Z" stroke="#000000" stroke-width="1.33333" stroke-linecap="butt" stroke-linejoin="miter" stroke-miterlimit="4" stroke-opacity="1" fill="#FFFFFF" fill-rule="nonzero" fill-opacity="1"/><path d="M264.774 438.774 289.161 438.774 289.161 441.484 264.774 441.484Z" stroke="#000000" stroke-width="1.33333" stroke-linecap="butt" stroke-linejoin="miter" stroke-miterlimit="4" stroke-opacity="1" fill="#FFFFFF" fill-rule="nonzero" fill-opacity="1"/><path d="M232.258 438.774 262.065 438.774 262.065 441.484 232.258 441.484Z" stroke="#000000" stroke-width="1.33333" stroke-linecap="butt" stroke-linejoin="miter" stroke-miterlimit="4" stroke-opacity="1" fill="#FFFFFF" fill-rule="nonzero" fill-opacity="1"/><path d="M264.774 433.355 294.581 433.355 294.581 436.065 264.774 436.065Z" stroke="#000000" stroke-width="1.33333" stroke-linecap="butt" stroke-linejoin="miter" stroke-miterlimit="4" stroke-opacity="1" fill="#FFFFFF" fill-rule="nonzero" fill-opacity="1"/><path d="M232.258 433.355 262.065 433.355 262.065 436.065 232.258 436.065Z" stroke="#000000" stroke-width="1.33333" stroke-linecap="butt" stroke-linejoin="miter" stroke-miterlimit="4" stroke-opacity="1" fill="#FFFFFF" fill-rule="nonzero" fill-opacity="1"/></g></g></g></g></g></svg>