<svg width="82" height="87" xmlns="http://www.w3.org/2000/svg" xmlns:xlink="http://www.w3.org/1999/xlink" xml:space="preserve" overflow="hidden"><defs><linearGradient x1="2616.68" y1="1521.68" x2="2671.32" y2="1616.32" gradientUnits="userSpaceOnUse" spreadMethod="reflect" id="fill0"><stop offset="0" stop-color="#1C1C1C" stop-opacity="1"/><stop offset="0.75" stop-color="#58DFC9" stop-opacity="1"/><stop offset="1" stop-color="#58DFC9" stop-opacity="1"/></linearGradient><linearGradient x1="2612.88" y1="1547.88" x2="2651.12" y2="1614.12" gradientUnits="userSpaceOnUse" spreadMethod="reflect" id="fill1"><stop offset="0" stop-color="#1C1C1C" stop-opacity="1"/><stop offset="0.75" stop-color="#58DFC9" stop-opacity="1"/><stop offset="1" stop-color="#58DFC9" stop-opacity="1"/></linearGradient></defs><g transform="translate(-2603 -1526)"><g><path d="M2604 1568.76C2604 1567.59 2604 1566.18 2604 1565 2604 1562.65 2605.66 1561 2608.02 1561 2609.92 1561 2612.05 1561.71 2613.47 1560.76 2614.65 1559.82 2614.89 1557.47 2615.6 1555.82 2616.78 1553 2617.02 1553 2614.65 1550.88 2610.86 1547.35 2610.39 1545.24 2614.65 1541.71 2616.07 1540.53 2617.25 1539.12 2618.44 1537.94 2620.33 1536.29 2622.46 1536.29 2624.35 1537.94 2625.54 1538.88 2626.49 1540.06 2627.67 1541 2628.14 1541.47 2628.62 1541.71 2629.33 1541.24 2631.22 1540.29 2633.11 1539.35 2635.24 1538.88 2635.95 1538.65 2636.19 1538.18 2636.19 1537.47 2636.19 1536.06 2636.19 1534.41 2636.19 1533 2636.19 1530.65 2637.85 1529 2640.21 1529 2642.82 1529 2645.42 1529 2648.02 1529 2650.39 1529 2652.05 1530.65 2652.05 1533 2652.05 1534.88 2651.57 1537 2652.28 1538.41 2652.99 1539.59 2655.36 1539.82 2657.02 1540.53 2659.86 1541.71 2660.09 1541.94 2662.22 1539.59 2665.54 1536.06 2667.67 1535.59 2671.22 1539.59 2672.4 1540.76 2673.59 1541.94 2674.77 1543.35 2676.66 1545.47 2676.66 1547.59 2674.77 1549.71 2673.82 1550.65 2672.88 1551.59 2671.93 1552.53 2671.22 1553.24 2671.22 1553.71 2671.69 1554.65 2672.64 1556.29 2673.35 1558.18 2674.06 1560.06 2674.3 1561 2674.77 1561.24 2675.48 1561.24 2676.9 1561.24 2678.56 1561.24 2679.98 1561.24 2682.34 1561.24 2684 1562.88 2684 1565.24 2684 1567.82 2684 1570.65 2684 1573.24 2684 1575.59 2682.34 1577.24 2679.98 1577.24 2678.56 1577.24 2677.14 1577.24 2675.72 1577.24 2674.77 1577.24 2674.06 1577.47 2673.82 1578.41 2673.35 1580.29 2672.64 1582.18 2671.69 1583.82 2671.22 1584.53 2671.22 1585.24 2671.93 1585.94 2672.88 1586.88 2673.82 1587.82 2675.01 1588.76 2676.9 1590.65 2676.9 1592.76 2675.01 1594.88 2673.35 1596.76 2671.46 1598.41 2669.8 1600.06 2667.91 1601.94 2665.78 1601.94 2663.88 1600.06 2662.46 1598.88 2661.51 1597 2660.09 1596.53 2658.67 1596.29 2657.02 1597.71 2655.36 1598.41 2652.28 1599.59 2652.28 1599.59 2652.28 1602.88 2652.28 1603.59 2652.28 1604.53 2652.28 1605.24 2652.05 1607.35 2650.63 1609 2648.5 1609 2645.66 1609 2643.05 1609 2640.21 1609 2637.85 1609 2636.43 1607.35 2636.19 1605 2636.19 1603.35 2636.19 1601.94 2636.19 1600.29 2636.19 1599.59 2635.95 1599.12 2635.24 1598.88 2634.06 1598.65 2632.88 1598.18 2631.69 1597.47 2630.51 1597 2630.27 1596.06 2631.22 1595.12 2633.11 1593.24 2634.77 1591.59 2636.66 1589.71 2637.61 1588.76 2638.56 1589.47 2639.27 1589.47 2651.1 1592.29 2662.7 1585 2665.3 1573.24 2667.91 1561.71 2660.09 1550.18 2648.5 1548.06 2636.43 1545.71 2625.07 1553.71 2623.17 1565.71 2622.7 1568.76 2622.93 1571.59 2623.65 1574.41 2623.88 1575.59 2623.88 1576.29 2622.93 1577 2621.28 1578.41 2619.86 1580.06 2618.2 1581.71 2617.02 1582.88 2616.07 1582.65 2615.36 1581.24 2615.12 1580.76 2614.89 1580.53 2614.89 1580.06 2613.7 1577 2613.7 1577 2610.39 1577 2609.68 1577 2608.97 1577 2608.5 1577 2606.13 1577 2604.47 1575.35 2604.47 1573 2604 1571.35 2604 1570.18 2604 1568.76ZM2634.06 1595.59C2635.24 1596.06 2635.95 1596.29 2636.66 1596.29 2638.08 1596.53 2638.79 1597.24 2638.79 1598.88 2638.56 1600.53 2638.79 1602.41 2638.79 1604.06 2638.79 1605.47 2639.27 1605.94 2640.69 1605.94 2643.05 1605.94 2645.18 1605.94 2647.55 1605.94 2648.97 1605.94 2649.44 1605.24 2649.44 1603.82 2649.44 1601.94 2649.44 1600.06 2649.44 1598.41 2649.44 1597.24 2649.92 1596.76 2651.1 1596.53 2653.94 1595.82 2656.54 1594.88 2659.15 1593.24 2660.09 1592.53 2660.8 1592.76 2661.75 1593.47 2663.17 1594.88 2664.36 1596.06 2665.78 1597.47 2666.72 1598.41 2667.43 1598.41 2668.38 1597.47 2670.04 1595.82 2671.69 1594.18 2673.11 1592.76 2674.06 1591.82 2674.06 1590.88 2673.11 1589.94 2671.69 1588.76 2670.51 1587.35 2669.09 1586.18 2668.38 1585.47 2668.14 1584.76 2668.85 1583.59 2670.27 1581.24 2671.46 1578.65 2672.17 1575.82 2672.4 1574.65 2673.11 1573.94 2674.3 1574.18 2676.19 1574.18 2678.08 1574.18 2679.74 1574.18 2681.16 1574.18 2681.63 1573.47 2681.63 1572.29 2681.63 1569.94 2681.63 1567.82 2681.63 1565.47 2681.63 1564.06 2681.16 1563.59 2679.74 1563.59 2677.85 1563.59 2675.95 1563.59 2674.3 1563.59 2673.11 1563.59 2672.4 1563.12 2672.17 1561.94 2671.46 1559.12 2670.51 1556.53 2668.85 1553.94 2668.14 1553 2668.38 1552.29 2669.09 1551.35 2670.51 1550.18 2671.69 1548.76 2673.11 1547.59 2674.06 1546.65 2674.3 1545.71 2673.11 1544.76 2671.46 1543.12 2669.8 1541.47 2668.38 1540.06 2667.43 1539.12 2666.72 1539.12 2665.78 1540.06 2664.36 1541.47 2663.17 1542.65 2661.75 1544.06 2661.04 1544.76 2660.33 1545 2659.15 1544.29 2656.78 1542.65 2653.94 1541.71 2651.1 1541 2649.92 1540.76 2649.44 1540.06 2649.44 1539.12 2649.44 1537.24 2649.44 1535.35 2649.44 1533.47 2649.44 1532.29 2648.97 1531.59 2647.55 1531.59 2645.18 1531.59 2642.82 1531.59 2640.45 1531.59 2639.27 1531.59 2638.79 1532.06 2638.79 1533.24 2638.79 1535.12 2638.79 1537 2638.79 1538.65 2638.79 1540.06 2638.32 1540.76 2637.14 1541 2634.3 1541.71 2631.93 1542.65 2629.56 1544.06 2628.38 1544.76 2627.67 1544.53 2626.72 1543.59 2625.54 1542.18 2624.12 1541 2622.93 1539.59 2621.99 1538.65 2621.28 1538.65 2620.33 1539.59 2618.67 1541.24 2617.02 1542.88 2615.36 1544.53 2614.41 1545.47 2614.65 1546.18 2615.36 1546.88 2616.78 1548.29 2618.2 1549.71 2619.62 1550.88 2620.33 1551.59 2620.57 1552.29 2620.09 1553.24 2618.44 1555.82 2617.49 1558.41 2616.78 1561.24 2616.54 1562.41 2615.83 1562.88 2614.65 1562.65 2612.76 1562.65 2610.86 1562.65 2608.97 1562.65 2607.79 1562.65 2607.08 1563.12 2607.08 1564.53 2607.08 1566.88 2607.08 1569.24 2607.08 1571.59 2607.08 1573 2607.79 1573.47 2608.97 1573.47 2610.86 1573.47 2612.76 1573.47 2614.65 1573.47 2615.83 1573.47 2616.31 1573.94 2616.54 1574.88 2616.78 1575.82 2617.02 1577 2617.73 1578.18 2618.67 1577.24 2619.15 1576.29 2620.09 1575.59 2621.04 1574.88 2621.04 1574.18 2620.8 1573 2620.09 1570.18 2620.09 1567.35 2620.57 1564.53 2622.23 1552.53 2633.35 1543.59 2645.89 1544.29 2657.96 1545 2668.14 1555.12 2668.38 1567.12 2668.85 1582.88 2655.12 1594.65 2639.27 1591.59 2638.56 1591.59 2638.08 1591.35 2637.61 1591.82 2636.43 1593.47 2635.24 1594.41 2634.06 1595.59Z" fill="url(#fill0)" fill-rule="evenodd"/><path d="M2646.29 1579.89C2643.45 1578.48 2642.03 1580.83 2640.13 1582.72 2632.07 1590.73 2624.01 1598.74 2615.94 1606.76 2614.28 1608.41 2612.15 1609.35 2609.54 1608.88 2604.56 1607.94 2602.43 1602.28 2605.27 1598.27 2605.75 1597.8 2606.22 1597.09 2606.7 1596.62 2615.23 1588.14 2624.01 1579.42 2632.54 1570.93 2633.25 1570.23 2633.49 1569.76 2633.25 1568.58 2631.59 1558.91 2640.6 1550.9 2649.85 1553.49 2651.75 1553.96 2651.98 1554.91 2650.8 1556.32 2649.61 1557.5 2648.43 1558.91 2647.24 1559.86 2645.35 1561.27 2645.11 1562.68 2646.06 1564.81 2646.53 1565.75 2647.01 1566.22 2647.95 1566.69 2650.09 1567.63 2651.51 1567.4 2652.93 1565.51 2653.88 1564.33 2655.07 1563.16 2656.25 1561.98 2657.91 1560.33 2658.86 1560.8 2659.33 1562.92 2662.18 1571.64 2655.54 1579.89 2646.29 1579.89ZM2647.95 1556.09C2647.24 1556.09 2647.01 1555.85 2646.77 1555.85 2640.13 1555.85 2634.91 1562.21 2636.34 1568.58 2636.81 1570.23 2636.34 1571.17 2635.15 1572.35 2626.38 1581.07 2617.6 1589.79 2608.83 1598.51 2608.36 1598.98 2607.88 1599.45 2607.65 1599.92 2605.75 1602.28 2607.17 1605.58 2610.02 1606.29 2611.91 1606.76 2613.1 1605.82 2614.28 1604.64 2623.29 1595.68 2632.3 1586.72 2641.31 1577.77 2642.26 1576.83 2642.97 1576.59 2644.4 1576.83 2650.09 1578.24 2655.78 1574.94 2657.2 1569.28 2657.44 1568.11 2657.67 1566.93 2657.44 1565.28 2655.78 1566.93 2654.59 1568.11 2653.41 1569.52 2652.46 1570.46 2651.75 1570.7 2650.56 1570.23 2645.11 1568.34 2645.11 1568.34 2643.21 1562.92 2642.74 1561.74 2642.97 1560.8 2643.92 1560.09 2645.11 1558.91 2646.29 1557.74 2647.95 1556.09Z" fill="url(#fill1)" fill-rule="evenodd"/></g></g></svg>