<svg width="83" height="78" xmlns="http://www.w3.org/2000/svg" xmlns:xlink="http://www.w3.org/1999/xlink" xml:space="preserve" overflow="hidden"><defs><linearGradient x1="2393.95" y1="1695.37" x2="2446.05" y2="1785.63" gradientUnits="userSpaceOnUse" spreadMethod="reflect" id="fill0"><stop offset="0" stop-color="#1C1C1C" stop-opacity="1"/><stop offset="0.75" stop-color="#58DFC9" stop-opacity="1"/><stop offset="1" stop-color="#58DFC9" stop-opacity="1"/></linearGradient><linearGradient x1="2406.84" y1="1731.94" x2="2416.16" y2="1748.06" gradientUnits="userSpaceOnUse" spreadMethod="reflect" id="fill1"><stop offset="0" stop-color="#1C1C1C" stop-opacity="1"/><stop offset="0.75" stop-color="#58DFC9" stop-opacity="1"/><stop offset="1" stop-color="#58DFC9" stop-opacity="1"/></linearGradient><linearGradient x1="2434.63" y1="1732.06" x2="2444.37" y2="1748.94" gradientUnits="userSpaceOnUse" spreadMethod="reflect" id="fill2"><stop offset="0" stop-color="#1C1C1C" stop-opacity="1"/><stop offset="0.75" stop-color="#58DFC9" stop-opacity="1"/><stop offset="1" stop-color="#58DFC9" stop-opacity="1"/></linearGradient><linearGradient x1="2420.26" y1="1729.43" x2="2430.74" y2="1747.57" gradientUnits="userSpaceOnUse" spreadMethod="reflect" id="fill3"><stop offset="0" stop-color="#1C1C1C" stop-opacity="1"/><stop offset="0.75" stop-color="#58DFC9" stop-opacity="1"/><stop offset="1" stop-color="#58DFC9" stop-opacity="1"/></linearGradient><linearGradient x1="2400.19" y1="1708.73" x2="2402.81" y2="1713.27" gradientUnits="userSpaceOnUse" spreadMethod="reflect" id="fill4"><stop offset="0" stop-color="#1C1C1C" stop-opacity="1"/><stop offset="0.75" stop-color="#58DFC9" stop-opacity="1"/><stop offset="1" stop-color="#58DFC9" stop-opacity="1"/></linearGradient><linearGradient x1="2411.19" y1="1708.73" x2="2413.81" y2="1713.27" gradientUnits="userSpaceOnUse" spreadMethod="reflect" id="fill5"><stop offset="0" stop-color="#1C1C1C" stop-opacity="1"/><stop offset="0.75" stop-color="#58DFC9" stop-opacity="1"/><stop offset="1" stop-color="#58DFC9" stop-opacity="1"/></linearGradient></defs><g transform="translate(-2378 -1700)"><g><path d="M2414.57 1777C2404.13 1777 2393.7 1777 2383.26 1777 2380.06 1777 2379 1775.93 2379 1772.73 2379 1754.8 2379 1737.08 2379 1719.16 2379 1715.95 2380.06 1714.89 2383.26 1714.89 2384.75 1714.89 2386.45 1714.89 2387.95 1714.89 2389.44 1714.89 2389.86 1714.67 2389.86 1712.96 2389.65 1711.04 2389.86 1709.12 2389.86 1707.42 2389.86 1705.28 2391.14 1704.21 2393.06 1704 2393.48 1704 2393.91 1704 2394.33 1704 2414.99 1704 2435.87 1704 2456.53 1704 2460.15 1704 2461 1704.85 2461 1708.48 2461 1726.2 2461 1743.92 2461 1761.63 2461 1765.05 2459.94 1766.11 2456.53 1766.11 2455.04 1766.11 2453.33 1766.11 2451.84 1766.11 2450.56 1766.11 2449.92 1766.33 2449.92 1767.82 2450.14 1769.53 2449.92 1771.24 2449.92 1772.94 2449.92 1775.93 2448.86 1776.79 2445.88 1777 2435.87 1777 2425.22 1777 2414.57 1777ZM2425.86 1719.16C2415.42 1719.16 2404.98 1719.16 2394.33 1719.16 2393.06 1719.16 2392.42 1719.37 2392.63 1720.86 2392.63 1734.52 2392.63 1747.97 2392.63 1761.63 2392.63 1763.13 2393.06 1763.55 2394.55 1763.55 2415.42 1763.55 2436.08 1763.55 2456.95 1763.55 2458.44 1763.55 2458.87 1763.13 2458.87 1761.85 2458.87 1748.18 2458.87 1734.52 2458.87 1721.08 2458.87 1719.8 2458.44 1719.37 2457.17 1719.37 2446.52 1719.16 2436.08 1719.16 2425.86 1719.16ZM2414.57 1774.23C2417.34 1774.23 2420.32 1774.23 2423.09 1774.23 2430.76 1774.23 2438.42 1774.23 2446.09 1774.23 2447.37 1774.23 2447.79 1773.8 2447.79 1772.52 2447.79 1770.81 2447.58 1769.32 2447.79 1767.61 2448.01 1766.11 2447.37 1765.9 2446.09 1765.9 2429.05 1765.9 2411.8 1765.9 2394.76 1765.9 2394.12 1765.9 2393.7 1765.9 2393.06 1765.9 2391.14 1765.69 2390.08 1764.62 2389.86 1762.7 2389.86 1761.85 2389.86 1760.78 2389.86 1759.92 2389.86 1750.53 2389.86 1740.93 2389.86 1731.54 2389.86 1730.04 2389.44 1729.61 2388.16 1729.83 2386.67 1730.04 2384.96 1730.04 2383.47 1729.83 2381.98 1729.61 2381.56 1730.04 2381.77 1731.54 2381.77 1745.2 2381.77 1758.64 2381.77 1772.3 2381.77 1774.01 2382.41 1774.23 2383.69 1774.23 2393.91 1774.23 2404.35 1774.23 2414.57 1774.23ZM2425.64 1716.38C2436.08 1716.38 2446.52 1716.38 2456.95 1716.38 2458.23 1716.38 2458.66 1716.17 2458.66 1714.67 2458.44 1712.54 2458.44 1710.4 2458.66 1708.48 2458.66 1706.99 2458.23 1706.56 2456.74 1706.56 2443.96 1706.56 2431.39 1706.56 2418.62 1706.56 2410.52 1706.56 2402.43 1706.56 2394.33 1706.56 2393.06 1706.56 2392.63 1706.99 2392.63 1708.27 2392.63 1710.4 2392.84 1712.54 2392.63 1714.67 2392.63 1715.95 2392.84 1716.38 2394.33 1716.38 2404.56 1716.38 2415.21 1716.38 2425.64 1716.38ZM2389.86 1722.78C2389.86 1721.29 2389.86 1720.01 2389.86 1718.94 2389.86 1717.87 2389.44 1717.66 2388.58 1717.66 2386.67 1717.66 2384.75 1717.66 2383.05 1717.66 2382.19 1717.66 2381.77 1718.09 2381.77 1718.94 2381.77 1720.65 2381.77 1722.36 2381.77 1724.06 2381.77 1727.48 2381.77 1727.48 2385.18 1727.48 2386.67 1727.48 2388.8 1728.12 2389.86 1727.27 2390.5 1725.99 2389.86 1724.06 2389.86 1722.78Z" fill="url(#fill0)" fill-rule="evenodd"/><path d="M2417.57 1747C2413.52 1744.95 2409.48 1743.1 2405.64 1741.04 2404.79 1740.63 2404.79 1739.19 2405.64 1738.78 2409.48 1736.93 2413.1 1735.09 2416.93 1733.24 2417.15 1733.03 2417.57 1732.83 2417.79 1733.24 2418 1734.06 2418.21 1734.88 2417.57 1735.29 2417.15 1735.7 2416.72 1735.7 2416.08 1735.91 2413.52 1737.14 2410.97 1738.37 2408.2 1739.81 2411.18 1741.25 2413.74 1742.48 2416.3 1743.71 2417.79 1744.53 2418 1745.56 2417.57 1747Z" fill="url(#fill1)" fill-rule="evenodd"/><path d="M2443.14 1740.36C2440.12 1738.84 2437.31 1737.53 2434.51 1736 2434.08 1735.78 2433.86 1735.78 2433.43 1735.56 2432.78 1734.91 2433 1734.03 2433.22 1733.38 2433.65 1732.51 2434.08 1733.38 2434.51 1733.6 2437.96 1735.34 2441.63 1737.09 2445.08 1739.05 2446.15 1739.71 2446.37 1741.02 2445.29 1741.67 2441.19 1743.85 2437.31 1745.82 2433.22 1748 2432.78 1746.25 2433 1745.38 2434.73 1744.73 2437.53 1743.42 2440.33 1741.89 2443.14 1740.36Z" fill="url(#fill2)" fill-rule="evenodd"/><path d="M2421.97 1747.93C2421.16 1748.14 2420.75 1747.93 2421.16 1746.88 2423.18 1741.25 2425.41 1735.62 2427.44 1729.99 2427.84 1728.74 2428.86 1728.95 2429.67 1729.16 2430.27 1729.16 2429.87 1729.78 2429.87 1729.99 2427.64 1735.83 2425.61 1741.67 2423.39 1747.3 2422.98 1747.93 2422.58 1747.93 2421.97 1747.93Z" fill="url(#fill3)" fill-rule="evenodd"/><path d="M2401.31 1712C2400.53 1712 2399.75 1712 2399.17 1712 2398.39 1712 2398 1711.67 2398 1711 2398 1710.33 2398.39 1710 2399.17 1710 2400.72 1710 2402.28 1710 2403.83 1710 2404.42 1710 2404.81 1710.33 2405 1711 2405 1711.67 2404.61 1712 2403.83 1712 2402.86 1712 2402.08 1712 2401.31 1712Z" fill="url(#fill4)" fill-rule="evenodd"/><path d="M2412.6 1710C2413.4 1710 2414.2 1710 2414.8 1710 2415.6 1710 2416 1710.46 2416 1711.08 2416 1711.54 2415.6 1712 2414.8 1712 2413.2 1712 2411.6 1712 2410.2 1712 2409.4 1712 2409 1711.69 2409 1711.08 2409 1710.46 2409.6 1710.15 2410.2 1710.15 2411 1710 2411.8 1710 2412.6 1710 2412.6 1710 2412.6 1710 2412.6 1710Z" fill="url(#fill5)" fill-rule="evenodd"/></g></g></svg>