<svg width="72" height="31" xmlns="http://www.w3.org/2000/svg" xmlns:xlink="http://www.w3.org/1999/xlink" xml:space="preserve" overflow="hidden"><defs><clipPath id="clip0"><rect x="78" y="653" width="72" height="31"/></clipPath><clipPath id="clip1"><rect x="78" y="653" width="72" height="31"/></clipPath><clipPath id="clip2"><rect x="79" y="654" width="71" height="29"/></clipPath><clipPath id="clip3"><rect x="79" y="654" width="71" height="29"/></clipPath><clipPath id="clip4"><rect x="79" y="654" width="71" height="29"/></clipPath></defs><g clip-path="url(#clip0)" transform="translate(-78 -653)"><g clip-path="url(#clip1)"><g clip-path="url(#clip2)"><g clip-path="url(#clip3)"><g clip-path="url(#clip4)"><path d="M15.5699 2.84369C12.9233 2.84369 11.2903 4.84272 11.2903 8.24951 11.2903 11.6282 12.9233 13.6553 15.5699 13.6553 18.2165 13.6553 19.8495 11.6563 19.8495 8.24951 19.8495 4.84272 18.2447 2.84369 15.5699 2.84369ZM15.5699 13.0359C14.5563 13.0359 14.2466 11.9379 14.2466 8.22136 14.2466 4.50485 14.5563 3.4068 15.5699 3.4068 16.5835 3.4068 16.8932 4.53301 16.8932 8.24951 16.8932 11.9379 16.5835 13.0359 15.5699 13.0359ZM35.0816 18.132C33.9553 18.132 33.1388 18.5544 32.6602 19.2864L32.6602 15.5699 29.8165 15.5699 29.8165 22.468C29.8165 26.2126 27.6767 27.9864 25.734 27.9864 24.2981 27.9864 23.7068 27.001 23.7068 23.6223 23.7068 20.2437 24.0728 18.7233 25.2272 18.7233 25.9874 18.7233 26.635 19.4553 27.2825 21.1447L27.9864 21.1447 27.9864 18.6388C27.1417 18.301 26.1 18.132 25.2835 18.132 22.3835 18.132 20.7505 20.2155 20.7505 23.6223 20.7505 27.001 22.3835 28.9155 25.1427 28.9155 27.4233 28.9155 29.0563 27.7049 29.8165 25.6495L29.8165 28.6621 32.6602 28.6621 32.6602 21.0039C32.6602 19.8214 33.3078 19.2301 33.9835 19.2301 34.6311 19.2301 34.8563 19.765 34.8563 20.5816L34.8563 28.6903 37.7 28.6903 37.7 21.1165C37.7 19.0049 36.6582 18.132 35.0816 18.132ZM21.5951 0.281553 21.5951 13.4019 24.4388 13.4019 24.4388 0.281553 21.5951 0.281553ZM31.8437 0.281553 31.8437 3.85728C31.5903 3.23786 30.9709 2.84369 29.9854 2.84369 27.7612 2.84369 26.2689 4.84272 26.2689 8.1932 26.2689 11.6282 27.5922 13.6272 29.8728 13.6272 30.9427 13.6272 31.6748 13.1204 32.0126 12.0786L32.0126 13.3738 34.6592 13.3738 34.6592 0.281553 31.8437 0.281553ZM30.4359 12.8107C29.535 12.8107 29.2252 11.9097 29.2252 8.16505 29.2252 4.64563 29.535 3.60388 30.4922 3.60388 31.534 3.60388 31.9 4.84272 31.9 8.16505 31.9 11.5155 31.4214 12.8107 30.4359 12.8107ZM46.9349 2.84369C45.668 2.84369 44.7388 3.51942 44.3447 4.44854 43.9505 3.37864 43.1621 2.84369 42.0359 2.84369 40.8252 2.84369 39.9524 3.37864 39.5301 4.25146L39.5301 3.09709 36.8835 3.09709 36.8835 13.4019 39.699 13.4019 39.699 5.71553C39.699 4.53301 40.2621 3.94175 40.966 3.94175 41.5573 3.94175 41.8107 4.42039 41.8107 5.23689L41.8107 13.4019 44.6544 13.4019 44.6544 5.71553C44.6544 4.53301 45.2175 3.94175 45.9214 3.94175 46.5126 3.94175 46.766 4.42039 46.766 5.23689L46.766 13.4019 49.6097 13.4019 49.6097 5.82816C49.6097 3.7165 48.5398 2.84369 46.9349 2.84369ZM44.5981 22.6369 42.965 21.6515C41.867 21.0039 41.4728 20.6097 41.4728 19.934 41.4728 19.1738 42.0078 18.6951 42.9087 18.6951 43.9786 18.6951 44.767 19.399 45.2456 21.1165L45.9495 21.1165 45.9495 18.4699C45.0485 18.2728 44.0349 18.1039 43.134 18.1039 40.8534 18.1039 39.4738 19.2301 39.4738 21.0602 39.4738 22.3272 40.1777 23.2 41.6136 24.0728L42.965 24.8893C44.0913 25.565 44.4854 26.0437 44.4854 26.8039 44.4854 27.7893 43.866 28.2961 42.7961 28.2961 41.4728 28.2961 40.7126 27.4515 40.2058 25.5932L39.5019 25.5932 39.5019 28.4932C40.5437 28.7748 41.6417 28.8874 42.5427 28.8874 45.133 28.8874 46.6252 27.6767 46.6252 25.6495 46.5971 24.2699 45.9214 23.4252 44.5981 22.6369ZM55.4379 2.84369C54.368 2.84369 53.101 3.04078 51.9184 3.4068L51.9184 5.82816 52.6223 5.82816C53.2136 4.30777 54.0019 3.46311 55.1282 3.46311 55.832 3.46311 56.1136 3.80097 56.1136 4.58932L56.1136 5.91262C56.1136 6.56019 55.9447 6.75728 55.2126 7.01068L54.4524 7.26408C52.2 8.02427 51.1864 9.00971 51.1864 10.7835 51.1864 12.6699 52.3126 13.6553 53.9456 13.6553 55.1 13.6553 56.0854 13.1485 56.3951 12.1631L56.3951 13.4019 58.9854 13.4019 58.9854 5.91262C58.9573 3.88544 57.7466 2.84369 55.4379 2.84369ZM56.1136 10.6427C56.1136 11.9942 55.6631 12.6136 54.9592 12.6136 54.2835 12.6136 54.0583 12.0786 54.0583 10.699L54.0583 10.4175C54.0583 8.81262 54.3961 8.16505 55.3252 7.68641L56.1136 7.29223 56.1136 10.6427ZM66.3621 2.84369C65.1233 2.84369 64.2223 3.37864 63.7718 4.25146L63.7718 3.09709 61.0971 3.09709 61.0971 13.4019 63.9408 13.4019 63.9408 5.68738C63.9408 4.50485 64.5883 3.91359 65.2641 3.91359 65.9117 3.91359 66.1369 4.44854 66.1369 5.26505L66.1369 13.3738 68.9806 13.3738 68.9806 5.82816C68.9806 3.7165 67.9388 2.84369 66.3621 2.84369ZM10.0796 24.2699C10.0796 26.9165 8.16505 28.6903 5.09612 28.6903L0.591262 28.6903 0.591262 23.9883 1.26699 23.9883C1.88641 26.7757 3.04078 28.0146 4.9835 28.0146 6.56019 28.0146 7.40485 27.1699 7.40485 25.7903 7.40485 24.3262 6.50388 23.6505 5.18058 22.8903L3.18155 21.7078C1.49223 20.7223 0.534951 19.5117 0.534951 17.8223 0.534951 15.9359 1.63301 14.7252 3.4068 14.2184 0.900971 13.5427 0 11.2621 0 7.20777 0 2.59029 1.91456 0 5.82816 0L9.46019 0 9.46019 3.88544 8.75631 3.88544C7.91165 1.40777 7.17961 0.647573 5.85631 0.647573 3.91359 0.647573 3.37864 2.73107 3.37864 7.32039 3.37864 12.6136 3.85728 13.7961 5.2932 13.7961 6.39126 13.7961 6.92621 13.0922 6.92621 11.4311L6.92621 9.40388C6.92621 8.16505 6.53204 7.71456 5.23689 7.51748L5.23689 6.8699 9.57281 6.8699 9.57281 17.935 8.92524 17.935C7.93981 15.1476 6.67282 14.5282 5.26505 14.5282 3.88544 14.5282 3.04078 15.1757 3.04078 16.4427 3.04078 17.6252 3.74466 18.1883 5.06796 18.9767L7.23592 20.2718C8.9534 21.3417 10.0796 22.3272 10.0796 24.2699ZM15.5417 18.132C14.4718 18.132 13.2049 18.3291 12.0223 18.6951L12.0223 21.1165 12.7262 21.1165C13.3175 19.5961 14.1058 18.7515 15.232 18.7515 15.9359 18.7515 16.2175 19.0893 16.2175 19.8777L16.2175 21.1728C16.2175 21.8204 16.0485 22.0175 15.3165 22.2709L14.5563 22.5243C12.3039 23.2845 11.2903 24.2699 11.2903 26.0437 11.2903 27.9301 12.4165 28.9155 14.0495 28.9155 15.2039 28.9155 16.1893 28.4087 16.499 27.4233L16.499 28.6621 19.0612 28.6621 19.0612 21.2291C19.0612 19.1738 17.8223 18.132 15.5417 18.132ZM16.2175 25.9311C16.2175 27.2825 15.767 27.9019 15.0631 27.9019 14.3874 27.9019 14.1621 27.367 14.1621 25.9874L14.1621 25.7058C14.1621 24.101 14.5 23.4534 15.4291 22.9748L16.2175 22.5806 16.2175 25.9311Z" fill="#FFFFFF" fill-rule="nonzero" fill-opacity="1" transform="matrix(1.02928 0 0 1 79 654.042)"/></g></g></g></g></g></svg>