<svg width="143" height="128" xmlns="http://www.w3.org/2000/svg" xmlns:xlink="http://www.w3.org/1999/xlink" xml:space="preserve" overflow="hidden"><g transform="translate(-352 -1127)"><g><g><g><g><path d="M115.795 117.395 101.392 117.395 101.392 115.595C101.392 114.652 100.649 113.909 99.7059 113.909L97.6483 113.909 97.6483 106.85C97.6483 106.05 97.0196 105.421 96.2195 105.421 95.4193 105.421 94.7906 106.05 94.7906 106.85L94.7906 113.909 93.5046 113.909 93.5046 106.85C93.5046 106.05 92.8759 105.421 92.0758 105.421 91.2756 105.421 90.6469 106.05 90.6469 106.85L90.6469 113.909 88.5893 113.909C87.6463 113.909 86.9033 114.652 86.9033 115.595L86.9033 117.395 72.5004 117.395C71.7002 117.395 71.0715 118.024 71.0715 118.824 71.0715 119.624 71.7002 120.253 72.5004 120.253L86.8747 120.253 86.8747 122.053C86.8747 122.996 87.6177 123.739 88.5608 123.739L99.6773 123.739C100.62 123.739 101.363 122.996 101.363 122.053L101.363 120.253 115.766 120.253C116.566 120.253 117.195 119.624 117.195 118.824 117.195 118.024 116.566 117.395 115.795 117.395ZM98.5056 120.882 89.7324 120.882 89.7324 116.738 98.5056 116.738 98.5056 120.882Z" fill="#FFFFFF" fill-rule="nonzero" fill-opacity="1" transform="matrix(1 0 0 1.0013 353 1128.05)"/><path d="M134.827 90.1039C136.485 90.1039 137.828 91.4471 137.828 93.1045L137.828 101.735C137.828 103.392 136.485 104.735 134.827 104.735L53.668 104.735C52.0105 104.735 50.6674 103.392 50.6674 101.735L50.6674 93.1045C50.6674 91.4471 52.0105 90.1039 53.668 90.1039L134.827 90.1039M134.827 86.9604 53.668 86.9604C50.2673 86.9604 47.5239 89.7038 47.5239 93.1045L47.5239 101.735C47.5239 105.136 50.2673 107.879 53.668 107.879L134.827 107.879C138.228 107.879 140.971 105.136 140.971 101.735L140.971 93.1045C141 89.7038 138.228 86.9604 134.827 86.9604Z" fill="#FFFFFF" fill-rule="nonzero" fill-opacity="1" transform="matrix(1 0 0 1.0013 353 1128.05)"/><path d="M54.954 102.478C54.0966 102.478 53.3822 101.763 53.3822 100.906L53.3822 93.9333C53.3822 93.076 54.0966 92.3615 54.954 92.3615 55.8113 92.3615 56.5257 93.076 56.5257 93.9333L56.5257 100.906C56.5257 101.792 55.8113 102.478 54.954 102.478Z" fill="#FFFFFF" fill-rule="nonzero" fill-opacity="1" transform="matrix(1 0 0 1.0013 353 1128.05)"/><path d="M60.8123 102.478C59.955 102.478 59.2405 101.763 59.2405 100.906L59.2405 93.9333C59.2405 93.076 59.955 92.3615 60.8123 92.3615 61.6696 92.3615 62.384 93.076 62.384 93.9333L62.384 100.906C62.384 101.792 61.6982 102.478 60.8123 102.478Z" fill="#FFFFFF" fill-rule="nonzero" fill-opacity="1" transform="matrix(1 0 0 1.0013 353 1128.05)"/><path d="M66.6706 102.478C65.8133 102.478 65.0989 101.763 65.0989 100.906L65.0989 93.9333C65.0989 93.076 65.8133 92.3615 66.6706 92.3615 67.5279 92.3615 68.2424 93.076 68.2424 93.9333L68.2424 100.906C68.2424 101.792 67.5565 102.478 66.6706 102.478Z" fill="#FFFFFF" fill-rule="nonzero" fill-opacity="1" transform="matrix(1 0 0 1.0013 353 1128.05)"/><path d="M90.6183 98.9914 86.9033 98.9914C86.046 98.9914 85.3315 98.277 85.3315 97.4197 85.3315 96.5624 86.046 95.8479 86.9033 95.8479L90.6183 95.8479C91.4756 95.8479 92.1901 96.5624 92.1901 97.4197 92.1901 98.277 91.5042 98.9914 90.6183 98.9914Z" fill="#FFFFFF" fill-rule="nonzero" fill-opacity="1" transform="matrix(1 0 0 1.0013 353 1128.05)"/><path d="M103.792 98.9914 95.1049 98.9914C94.2476 98.9914 93.5332 98.277 93.5332 97.4197 93.5332 96.5624 94.2476 95.8479 95.1049 95.8479L103.792 95.8479C104.65 95.8479 105.364 96.5624 105.364 97.4197 105.364 98.277 104.65 98.9914 103.792 98.9914Z" fill="#FFFFFF" fill-rule="nonzero" fill-opacity="1" transform="matrix(1 0 0 1.0013 353 1128.05)"/><path d="M121.653 98.9914 108.279 98.9914C107.422 98.9914 106.707 98.277 106.707 97.4197 106.707 96.5624 107.422 95.8479 108.279 95.8479L121.653 95.8479C122.51 95.8479 123.225 96.5624 123.225 97.4197 123.225 98.277 122.539 98.9914 121.653 98.9914Z" fill="#FFFFFF" fill-rule="nonzero" fill-opacity="1" transform="matrix(1 0 0 1.0013 353 1128.05)"/><path d="M131.026 95.6765C131.998 95.6765 132.77 96.4481 132.77 97.4197 132.77 98.3913 131.998 99.1629 131.026 99.1629 130.055 99.1629 129.283 98.3913 129.283 97.4197 129.283 96.4481 130.083 95.6765 131.026 95.6765M131.026 92.533C128.312 92.533 126.14 94.7334 126.14 97.4197 126.14 100.135 128.34 102.306 131.026 102.306 133.713 102.306 135.913 100.106 135.913 97.4197 135.942 94.7334 133.741 92.533 131.026 92.533Z" fill="#FFFFFF" fill-rule="nonzero" fill-opacity="1" transform="matrix(1 0 0 1.0013 353 1128.05)"/><path d="M134.827 72.0717C136.485 72.0717 137.828 73.4148 137.828 75.0723L137.828 83.7026C137.828 85.3601 136.485 86.7032 134.827 86.7032L53.668 86.7032C52.0105 86.7032 50.6674 85.3601 50.6674 83.7026L50.6674 75.0723C50.6674 73.4148 52.0105 72.0717 53.668 72.0717L134.827 72.0717M134.827 68.9282 53.668 68.9282C50.2673 68.9282 47.5239 71.6716 47.5239 75.0723L47.5239 83.7026C47.5239 87.1033 50.2673 89.8467 53.668 89.8467L134.827 89.8467C138.228 89.8467 140.971 87.1033 140.971 83.7026L140.971 75.0723C141 71.6716 138.228 68.9282 134.827 68.9282Z" fill="#FFFFFF" fill-rule="nonzero" fill-opacity="1" transform="matrix(1 0 0 1.0013 353 1128.05)"/><path d="M54.954 84.4456C54.0966 84.4456 53.3822 83.7312 53.3822 82.8739L53.3822 75.9011C53.3822 75.0437 54.0966 74.3293 54.954 74.3293 55.8113 74.3293 56.5257 75.0437 56.5257 75.9011L56.5257 82.8739C56.5257 83.7598 55.8113 84.4456 54.954 84.4456Z" fill="#FFFFFF" fill-rule="nonzero" fill-opacity="1" transform="matrix(1 0 0 1.0013 353 1128.05)"/><path d="M60.8123 84.4456C59.955 84.4456 59.2405 83.7312 59.2405 82.8739L59.2405 75.9011C59.2405 75.0437 59.955 74.3293 60.8123 74.3293 61.6696 74.3293 62.384 75.0437 62.384 75.9011L62.384 82.8739C62.384 83.7598 61.6982 84.4456 60.8123 84.4456Z" fill="#FFFFFF" fill-rule="nonzero" fill-opacity="1" transform="matrix(1 0 0 1.0013 353 1128.05)"/><path d="M66.6706 84.4456C65.8133 84.4456 65.0989 83.7312 65.0989 82.8739L65.0989 75.9011C65.0989 75.0437 65.8133 74.3293 66.6706 74.3293 67.5279 74.3293 68.2424 75.0437 68.2424 75.9011L68.2424 82.8739C68.2424 83.7598 67.5565 84.4456 66.6706 84.4456Z" fill="#FFFFFF" fill-rule="nonzero" fill-opacity="1" transform="matrix(1 0 0 1.0013 353 1128.05)"/><path d="M90.6183 80.9592 86.9033 80.9592C86.046 80.9592 85.3315 80.2448 85.3315 79.3875 85.3315 78.5302 86.046 77.8157 86.9033 77.8157L90.6183 77.8157C91.4756 77.8157 92.1901 78.5302 92.1901 79.3875 92.1901 80.2448 91.5042 80.9592 90.6183 80.9592Z" fill="#FFFFFF" fill-rule="nonzero" fill-opacity="1" transform="matrix(1 0 0 1.0013 353 1128.05)"/><path d="M103.792 80.9592 95.1049 80.9592C94.2476 80.9592 93.5332 80.2448 93.5332 79.3875 93.5332 78.5302 94.2476 77.8157 95.1049 77.8157L103.792 77.8157C104.65 77.8157 105.364 78.5302 105.364 79.3875 105.364 80.2448 104.65 80.9592 103.792 80.9592Z" fill="#FFFFFF" fill-rule="nonzero" fill-opacity="1" transform="matrix(1 0 0 1.0013 353 1128.05)"/><path d="M121.653 80.9592 108.279 80.9592C107.422 80.9592 106.707 80.2448 106.707 79.3875 106.707 78.5302 107.422 77.8157 108.279 77.8157L121.653 77.8157C122.51 77.8157 123.225 78.5302 123.225 79.3875 123.225 80.2448 122.539 80.9592 121.653 80.9592Z" fill="#FFFFFF" fill-rule="nonzero" fill-opacity="1" transform="matrix(1 0 0 1.0013 353 1128.05)"/><path d="M131.026 77.6443C131.998 77.6443 132.77 78.4158 132.77 79.3875 132.77 80.3591 131.998 81.1307 131.026 81.1307 130.055 81.1307 129.283 80.3591 129.283 79.3875 129.283 78.4158 130.083 77.6443 131.026 77.6443M131.026 74.5008C128.312 74.5008 126.14 76.7012 126.14 79.3875 126.14 82.1023 128.34 84.2742 131.026 84.2742 133.713 84.2742 135.913 82.0737 135.913 79.3875 135.942 76.7012 133.741 74.5008 131.026 74.5008Z" fill="#FFFFFF" fill-rule="nonzero" fill-opacity="1" transform="matrix(1 0 0 1.0013 353 1128.05)"/><path d="M134.827 54.0395C136.485 54.0395 137.828 55.3826 137.828 57.0401L137.828 65.6704C137.828 67.3279 136.485 68.671 134.827 68.671L53.668 68.671C52.0105 68.671 50.6674 67.3279 50.6674 65.6704L50.6674 57.0401C50.6674 55.3826 52.0105 54.0395 53.668 54.0395L134.827 54.0395M134.827 50.896 53.668 50.896C50.2673 50.896 47.5239 53.6394 47.5239 57.0401L47.5239 65.6704C47.5239 69.0711 50.2673 71.8145 53.668 71.8145L134.827 71.8145C138.228 71.8145 140.971 69.0711 140.971 65.6704L140.971 57.0401C141 53.6394 138.228 50.896 134.827 50.896Z" fill="#FFFFFF" fill-rule="nonzero" fill-opacity="1" transform="matrix(1 0 0 1.0013 353 1128.05)"/><path d="M54.954 66.4134C54.0966 66.4134 53.3822 65.699 53.3822 64.8417L53.3822 57.8688C53.3822 57.0115 54.0966 56.2971 54.954 56.2971 55.8113 56.2971 56.5257 57.0115 56.5257 57.8688L56.5257 64.8417C56.5257 65.7276 55.8113 66.4134 54.954 66.4134Z" fill="#FFFFFF" fill-rule="nonzero" fill-opacity="1" transform="matrix(1 0 0 1.0013 353 1128.05)"/><path d="M60.8123 66.4134C59.955 66.4134 59.2405 65.699 59.2405 64.8417L59.2405 57.8688C59.2405 57.0115 59.955 56.2971 60.8123 56.2971 61.6696 56.2971 62.384 57.0115 62.384 57.8688L62.384 64.8417C62.384 65.7276 61.6982 66.4134 60.8123 66.4134Z" fill="#FFFFFF" fill-rule="nonzero" fill-opacity="1" transform="matrix(1 0 0 1.0013 353 1128.05)"/><path d="M66.6706 66.4134C65.8133 66.4134 65.0989 65.699 65.0989 64.8417L65.0989 57.8688C65.0989 57.0115 65.8133 56.2971 66.6706 56.2971 67.5279 56.2971 68.2424 57.0115 68.2424 57.8688L68.2424 64.8417C68.2424 65.7276 67.5565 66.4134 66.6706 66.4134Z" fill="#FFFFFF" fill-rule="nonzero" fill-opacity="1" transform="matrix(1 0 0 1.0013 353 1128.05)"/><path d="M90.6183 62.927 86.9033 62.927C86.046 62.927 85.3315 62.2126 85.3315 61.3553 85.3315 60.4979 86.046 59.7835 86.9033 59.7835L90.6183 59.7835C91.4756 59.7835 92.1901 60.4979 92.1901 61.3553 92.1901 62.2126 91.5042 62.927 90.6183 62.927Z" fill="#FFFFFF" fill-rule="nonzero" fill-opacity="1" transform="matrix(1 0 0 1.0013 353 1128.05)"/><path d="M103.792 62.927 95.1049 62.927C94.2476 62.927 93.5332 62.2126 93.5332 61.3553 93.5332 60.4979 94.2476 59.7835 95.1049 59.7835L103.792 59.7835C104.65 59.7835 105.364 60.4979 105.364 61.3553 105.364 62.2126 104.65 62.927 103.792 62.927Z" fill="#FFFFFF" fill-rule="nonzero" fill-opacity="1" transform="matrix(1 0 0 1.0013 353 1128.05)"/><path d="M121.653 62.927 108.279 62.927C107.422 62.927 106.707 62.2126 106.707 61.3553 106.707 60.4979 107.422 59.7835 108.279 59.7835L121.653 59.7835C122.51 59.7835 123.225 60.4979 123.225 61.3553 123.225 62.2126 122.539 62.927 121.653 62.927Z" fill="#FFFFFF" fill-rule="nonzero" fill-opacity="1" transform="matrix(1 0 0 1.0013 353 1128.05)"/><path d="M131.026 59.6121C131.998 59.6121 132.77 60.3836 132.77 61.3553 132.77 62.3269 131.998 63.0985 131.026 63.0985 130.055 63.0985 129.283 62.3269 129.283 61.3553 129.283 60.3836 130.083 59.6121 131.026 59.6121M131.026 56.4686C128.312 56.4686 126.14 58.669 126.14 61.3553 126.14 64.0701 128.34 66.242 131.026 66.242 133.713 66.242 135.913 64.0415 135.913 61.3553 135.942 58.669 133.741 56.4686 131.026 56.4686Z" fill="#FFFFFF" fill-rule="nonzero" fill-opacity="1" transform="matrix(1 0 0 1.0013 353 1128.05)"/><path d="M86.7604 106.164C84.6171 107.45 82.3595 108.593 80.0162 109.565 76.4154 111.08 72.7004 112.223 68.8711 112.937 71.1572 111.194 73.3005 108.908 75.2724 106.164L71.7002 106.164C70.5 107.65 69.2711 108.936 67.9852 110.022 65.499 112.137 62.8984 113.394 60.2693 113.794L60.2693 106.164 56.5543 106.164 56.5543 113.794C53.9252 113.394 51.3247 112.137 48.8384 110.022 45.6378 107.336 42.7515 103.421 40.2367 98.4199 38.6078 95.1907 37.2075 91.6185 36.0359 87.7892 40.3224 86.8461 44.8376 86.1603 49.4957 85.7888L49.4957 82.9311C44.5519 83.3311 39.7795 84.0456 35.2357 85.0458 33.1781 77.3585 32.035 68.7853 31.9493 59.8407L49.4957 59.8407 49.4957 56.9829 31.9493 56.9829C32.0636 48.0383 33.2067 39.4365 35.2357 31.7779 41.8942 33.2639 49.1242 34.1212 56.5543 34.2355L56.5543 52.8678 60.2693 52.8678 60.2693 34.2069C67.6994 34.0926 74.9009 33.2353 81.5879 31.7493 83.3311 38.2363 84.4171 45.4092 84.76 52.8678L87.6177 52.8678C87.2462 45.0663 86.1031 37.6933 84.3599 31.092 91.0184 29.3774 97.0482 27.0055 102.078 24.062 105.136 27.9485 107.65 32.2065 109.594 36.7789 111.765 41.9228 113.137 47.3239 113.68 52.8678L116.538 52.8678C113.766 23.2047 88.7894 0 58.4118 0 26.1481 0 0 26.1481 0 58.4118 0 90.6755 26.1481 116.824 58.4118 116.824 70.9286 116.824 82.5024 112.88 92.0186 106.193L86.7604 106.193ZM80.0162 7.23003C86.6175 10.0306 92.5616 14.0314 97.6769 19.1467 98.5628 20.0326 99.3915 20.9185 100.192 21.8616 95.4479 24.5764 89.7896 26.7768 83.5312 28.3772 80.1876 17.2606 75.0152 8.57316 68.8711 3.8865 72.7004 4.57235 76.4154 5.68686 80.0162 7.23003ZM60.2693 3.00061C62.8984 3.40069 65.499 4.65808 67.9852 6.7728 71.1858 9.45905 74.0721 13.3741 76.5869 18.3751 78.2158 21.6044 79.6161 25.1765 80.7878 29.0059 74.3865 30.4347 67.4136 31.2349 60.2693 31.3492L60.2693 3.00061ZM56.5543 3.00061 56.5543 31.3492C49.3814 31.2349 42.4371 30.4347 36.0359 29.0059 37.2075 25.1765 38.6078 21.6044 40.2367 18.3751 42.7515 13.3741 45.6664 9.45905 48.8384 6.7728 51.3247 4.65808 53.9252 3.40069 56.5543 3.00061ZM19.1182 19.1182C24.2335 14.0028 30.149 10.002 36.7789 7.20146 40.3796 5.68686 44.0946 4.54378 47.924 3.82935 41.7799 8.51601 36.6074 17.2321 33.2639 28.32 27.0055 26.7197 21.3472 24.5192 16.6034 21.8044 17.4035 20.8899 18.2608 20.004 19.1182 19.1182ZM7.23003 36.7789C9.17328 32.2065 11.6881 27.9199 14.7458 24.062 19.7754 27.0055 25.8052 29.3774 32.4637 31.092 30.4061 38.8364 29.1773 47.6382 29.063 56.9829L2.8863 56.9829C3.05776 49.9815 4.5152 43.1802 7.23003 36.7789ZM7.23003 80.0162C4.5152 73.6149 3.05776 66.8135 2.8863 59.8121L29.0916 59.8121C29.2059 69.1568 30.4061 77.93 32.4923 85.703 25.8338 87.4177 19.804 89.7896 14.7744 92.733 11.6881 88.8751 9.17328 84.6171 7.23003 80.0162ZM36.7789 109.594C30.1775 106.793 24.2335 102.792 19.1182 97.6769 18.2323 96.791 17.4035 95.9051 16.6034 94.9621 21.3472 92.2472 27.0055 90.0468 33.2639 88.4464 36.6074 99.563 41.7799 108.25 47.924 112.937 44.0946 112.223 40.3796 111.108 36.7789 109.594Z" fill="#FFFFFF" fill-rule="nonzero" fill-opacity="1" transform="matrix(1 0 0 1.0013 353 1128.05)"/></g></g></g></g></g></svg>