<svg width="128" height="128" xmlns="http://www.w3.org/2000/svg" xmlns:xlink="http://www.w3.org/1999/xlink" xml:space="preserve" overflow="hidden"><defs><clipPath id="clip0"><rect x="357" y="1384" width="128" height="128"/></clipPath><clipPath id="clip1"><rect x="357" y="1384" width="128" height="128"/></clipPath></defs><g clip-path="url(#clip0)" transform="translate(-357 -1384)"><g clip-path="url(#clip1)"><g><g><g><path d="M410.727 1415.93C405.8 1415.93 402.07 1418.86 400.707 1423.67 396.404 1425.1 393.288 1429.16 393.288 1433.94 393.288 1434.62 393.366 1435.3 393.492 1435.96 390.931 1438.11 389.403 1441.29 389.403 1444.72 389.403 1447.52 390.425 1450.18 392.217 1452.24 391.214 1453.97 390.629 1455.99 390.629 1458.13 390.629 1463.83 394.67 1468.59 400.035 1469.72 400.065 1472.27 400.921 1474.62 402.548 1476.42 404.524 1478.62 407.504 1479.88 410.736 1479.88 417.026 1479.88 422.148 1474.76 422.148 1468.47L422.148 1427.34C422.138 1421.05 417.017 1415.93 410.727 1415.93ZM418.243 1468.47C418.243 1472.62 414.875 1475.99 410.727 1475.99 408.575 1475.99 406.695 1475.22 405.439 1473.82 404.485 1472.76 403.979 1471.4 403.92 1469.87 406.472 1469.56 408.857 1468.44 410.727 1466.61 411.496 1465.86 411.515 1464.63 410.766 1463.86 410.016 1463.09 408.779 1463.07 408.01 1463.82 406.52 1465.27 404.544 1466.07 402.47 1466.07 398.088 1466.07 394.524 1462.5 394.524 1458.12 394.524 1453.74 398.088 1450.18 402.47 1450.18 403.541 1450.18 404.417 1449.3 404.417 1448.23 404.417 1447.16 403.541 1446.28 402.47 1446.28 399.519 1446.28 396.822 1447.37 394.748 1449.16 393.823 1447.89 393.297 1446.34 393.297 1444.71 393.297 1442.9 393.95 1441.2 395.079 1439.86 395.625 1440.68 396.267 1441.44 397.027 1442.1 397.397 1442.43 397.854 1442.58 398.302 1442.58 398.847 1442.58 399.393 1442.36 399.772 1441.91 400.474 1441.1 400.386 1439.86 399.578 1439.16 398.059 1437.85 397.192 1435.94 397.192 1433.93 397.192 1430.11 400.298 1427 404.115 1427 405.965 1427 407.708 1427.72 409.013 1429.03 409.772 1429.79 411.009 1429.79 411.768 1429.03 412.528 1428.27 412.528 1427.03 411.768 1426.27 409.948 1424.45 407.601 1423.37 405.069 1423.15 406.189 1421 408.156 1419.81 410.736 1419.81 414.884 1419.81 418.253 1423.18 418.253 1427.32L418.253 1468.47Z" fill="#FFFFFF" fill-rule="nonzero" fill-opacity="1"/><path d="M423.862 1427.34 423.862 1468.47C423.862 1474.76 428.983 1479.88 435.273 1479.88 438.496 1479.88 441.486 1478.62 443.462 1476.42 445.088 1474.61 445.945 1472.27 445.974 1469.72 451.339 1468.59 455.38 1463.83 455.38 1458.13 455.38 1455.99 454.796 1453.97 453.793 1452.24 455.585 1450.18 456.607 1447.53 456.607 1444.72 456.607 1441.29 455.088 1438.11 452.518 1435.96 452.644 1435.3 452.722 1434.63 452.722 1433.94 452.722 1429.15 449.606 1425.09 445.302 1423.67 443.939 1418.86 440.21 1415.93 435.283 1415.93 428.974 1415.93 423.862 1421.05 423.862 1427.34ZM427.757 1427.34C427.757 1423.2 431.125 1419.83 435.273 1419.83 437.854 1419.83 439.821 1421.01 440.94 1423.17 438.409 1423.39 436.062 1424.47 434.241 1426.29 433.482 1427.05 433.482 1428.29 434.241 1429.05 435.001 1429.81 436.237 1429.81 436.997 1429.05 438.302 1427.74 440.045 1427.02 441.895 1427.02 445.711 1427.02 448.818 1430.13 448.818 1433.94 448.818 1435.95 447.951 1437.86 446.432 1439.18 445.624 1439.88 445.536 1441.12 446.237 1441.93 446.627 1442.38 447.162 1442.6 447.708 1442.6 448.155 1442.6 448.613 1442.45 448.983 1442.12 449.743 1441.46 450.385 1440.7 450.93 1439.87 452.06 1441.22 452.712 1442.91 452.712 1444.73 452.712 1446.36 452.187 1447.91 451.262 1449.18 449.188 1447.39 446.49 1446.3 443.54 1446.3 442.469 1446.3 441.593 1447.18 441.593 1448.25 441.593 1449.32 442.469 1450.2 443.54 1450.2 447.922 1450.2 451.485 1453.76 451.485 1458.14 451.485 1462.52 447.922 1466.09 443.54 1466.09 441.456 1466.09 439.49 1465.29 438 1463.84 437.231 1463.09 435.994 1463.11 435.244 1463.88 434.494 1464.65 434.514 1465.88 435.283 1466.63 437.153 1468.45 439.528 1469.57 442.089 1469.89 442.041 1471.42 441.525 1472.78 440.57 1473.84 439.314 1475.24 437.435 1476.01 435.283 1476.01 431.135 1476.01 427.766 1472.64 427.766 1468.49L427.766 1427.34Z" fill="#FFFFFF" fill-rule="nonzero" fill-opacity="1"/><path d="M473.277 1449.95C474.085 1452.32 476.334 1454.03 478.973 1454.03 482.293 1454.03 485 1451.33 485 1448.01 485 1444.68 482.293 1441.98 478.973 1441.98 476.334 1441.98 474.085 1443.69 473.277 1446.06L465.244 1446.06 465.244 1423.34 478.973 1423.34C480.044 1423.34 480.92 1422.46 480.92 1421.39L480.92 1410.43C483.286 1409.62 485 1407.37 485 1404.73 485 1401.41 482.293 1398.71 478.973 1398.71 475.653 1398.71 472.946 1401.41 472.946 1404.73 472.946 1407.37 474.659 1409.62 477.025 1410.43L477.025 1419.45 465.244 1419.45 465.244 1416.7C465.244 1410.67 460.336 1405.77 454.309 1405.77L451.554 1405.77 451.554 1393.75 460.443 1393.75C461.115 1396.35 463.472 1398.28 466.276 1398.28 469.596 1398.28 472.303 1395.57 472.303 1392.25 472.303 1388.93 469.586 1386.22 466.256 1386.22 463.783 1386.22 461.651 1387.72 460.726 1389.86L449.596 1389.86C448.525 1389.86 447.649 1390.73 447.649 1391.8L447.649 1405.76 424.943 1405.76 424.943 1398.21C427.309 1397.4 429.022 1395.15 429.022 1392.51 429.022 1389.19 426.315 1386.49 422.995 1386.49 419.675 1386.49 416.968 1389.19 416.968 1392.51 416.968 1395.15 418.682 1397.4 421.048 1398.21L421.048 1405.76 398.351 1405.76 398.351 1391.8C398.351 1390.73 397.475 1389.86 396.404 1389.86L385.264 1389.86C384.339 1387.72 382.207 1386.22 379.734 1386.22 376.414 1386.22 373.707 1388.93 373.707 1392.25 373.707 1395.57 376.414 1398.28 379.734 1398.28 382.538 1398.28 384.894 1396.35 385.566 1393.75L394.456 1393.75 394.456 1405.76 391.701 1405.76C385.673 1405.76 380.766 1410.66 380.766 1416.69L380.766 1419.44 368.975 1419.44 368.975 1410.42C371.341 1409.61 373.054 1407.36 373.054 1404.72 373.054 1401.4 370.347 1398.7 367.027 1398.7 363.707 1398.7 361 1401.4 361 1404.73 361 1407.37 362.714 1409.62 365.08 1410.43L365.08 1421.39C365.08 1422.46 365.956 1423.34 367.027 1423.34L380.756 1423.34 380.756 1446.05 372.723 1446.05C371.915 1443.68 369.666 1441.97 367.027 1441.97 363.707 1441.98 361 1444.67 361 1448.01 361 1451.33 363.707 1454.03 367.027 1454.03 369.666 1454.03 371.915 1452.32 372.723 1449.95L380.756 1449.95 380.756 1472.66 367.027 1472.66C365.956 1472.66 365.08 1473.54 365.08 1474.61L365.08 1485.57C362.714 1486.39 361 1488.63 361 1491.28 361 1494.6 363.707 1497.3 367.027 1497.3 370.347 1497.3 373.054 1494.6 373.054 1491.28 373.054 1488.64 371.341 1486.39 368.975 1485.58L368.975 1476.56 380.756 1476.56 380.756 1479.31C380.756 1485.34 385.664 1490.24 391.691 1490.24L394.446 1490.24 394.446 1501.81 385.44 1501.81C384.632 1499.45 382.382 1497.73 379.744 1497.73 376.423 1497.73 373.716 1500.44 373.716 1503.76 373.716 1507.08 376.423 1509.79 379.744 1509.79 382.382 1509.79 384.632 1508.07 385.44 1505.71L396.404 1505.71C397.475 1505.71 398.351 1504.83 398.351 1503.76L398.351 1490.24 421.048 1490.24 421.048 1497.79C418.682 1498.6 416.968 1500.85 416.968 1503.49 416.968 1506.81 419.675 1509.51 422.995 1509.51 426.315 1509.51 429.022 1506.81 429.022 1503.49 429.022 1500.85 427.309 1498.6 424.943 1497.79L424.943 1490.24 447.639 1490.24 447.639 1503.76C447.639 1504.83 448.516 1505.71 449.587 1505.71L460.551 1505.71C461.359 1508.07 463.608 1509.79 466.247 1509.79 469.567 1509.79 472.274 1507.08 472.274 1503.76 472.274 1500.44 469.567 1497.73 466.247 1497.73 463.608 1497.73 461.359 1499.45 460.551 1501.81L451.534 1501.81 451.534 1490.24 454.29 1490.24C460.317 1490.24 465.224 1485.34 465.224 1479.31L465.224 1476.56 477.006 1476.56 477.006 1485.58C474.64 1486.39 472.926 1488.64 472.926 1491.28 472.926 1494.6 475.633 1497.3 478.953 1497.3 482.274 1497.3 484.981 1494.6 484.981 1491.28 484.981 1488.64 483.267 1486.39 480.901 1485.58L480.901 1474.61C480.901 1473.54 480.024 1472.66 478.953 1472.66L465.224 1472.66 465.224 1449.95 473.277 1449.95ZM478.973 1445.87C480.151 1445.87 481.105 1446.83 481.105 1448.01 481.105 1449.18 480.151 1450.14 478.973 1450.14 477.795 1450.14 476.84 1449.18 476.84 1448.01 476.84 1446.83 477.795 1445.87 478.973 1445.87ZM478.973 1402.6C480.151 1402.6 481.105 1403.56 481.105 1404.73 481.105 1405.91 480.151 1406.87 478.973 1406.87 477.795 1406.87 476.84 1405.91 476.84 1404.73 476.84 1403.56 477.795 1402.6 478.973 1402.6ZM466.256 1390.12C467.435 1390.12 468.389 1391.07 468.389 1392.25 468.389 1393.43 467.435 1394.38 466.256 1394.38 465.078 1394.38 464.124 1393.43 464.124 1392.25 464.124 1391.07 465.088 1390.12 466.256 1390.12ZM422.995 1390.38C424.173 1390.38 425.128 1391.34 425.128 1392.51 425.128 1393.69 424.173 1394.65 422.995 1394.65 421.817 1394.65 420.863 1393.69 420.863 1392.51 420.863 1391.34 421.827 1390.38 422.995 1390.38ZM379.734 1394.38C378.556 1394.38 377.601 1393.43 377.601 1392.25 377.601 1391.07 378.565 1390.12 379.734 1390.12 380.902 1390.12 381.866 1391.07 381.866 1392.25 381.866 1393.43 380.912 1394.38 379.734 1394.38ZM367.027 1402.6C368.205 1402.6 369.16 1403.56 369.16 1404.73 369.16 1405.91 368.205 1406.87 367.027 1406.87 365.849 1406.87 364.895 1405.9 364.895 1404.73 364.895 1403.57 365.849 1402.6 367.027 1402.6ZM367.027 1450.14C365.849 1450.14 364.895 1449.17 364.895 1448.01 364.895 1446.84 365.849 1445.87 367.027 1445.87 368.205 1445.87 369.16 1446.83 369.16 1448.01 369.16 1449.18 368.205 1450.14 367.027 1450.14ZM367.027 1493.41C365.849 1493.41 364.895 1492.45 364.895 1491.28 364.895 1490.1 365.849 1489.14 367.027 1489.14 368.205 1489.14 369.16 1490.1 369.16 1491.28 369.16 1492.45 368.205 1493.41 367.027 1493.41ZM379.734 1505.88C378.556 1505.88 377.601 1504.93 377.601 1503.75 377.601 1502.57 378.556 1501.62 379.734 1501.62 380.912 1501.62 381.866 1502.57 381.866 1503.75 381.866 1504.93 380.912 1505.88 379.734 1505.88ZM422.995 1505.62C421.817 1505.62 420.863 1504.66 420.863 1503.49 420.863 1502.31 421.817 1501.35 422.995 1501.35 424.173 1501.35 425.128 1502.31 425.128 1503.49 425.128 1504.66 424.173 1505.62 422.995 1505.62ZM466.256 1501.62C467.435 1501.62 468.389 1502.57 468.389 1503.75 468.389 1504.93 467.435 1505.88 466.256 1505.88 465.078 1505.88 464.124 1504.93 464.124 1503.75 464.124 1502.57 465.088 1501.62 466.256 1501.62ZM460.852 1479.3C460.852 1482.91 457.912 1485.85 454.299 1485.85L391.691 1485.85C388.078 1485.85 385.138 1482.91 385.138 1479.3L385.138 1416.7C385.138 1413.09 388.078 1410.15 391.691 1410.15L454.299 1410.15C457.912 1410.15 460.852 1413.09 460.852 1416.7L460.852 1479.3ZM478.973 1493.41C477.795 1493.41 476.84 1492.45 476.84 1491.28 476.84 1490.1 477.795 1489.14 478.973 1489.14 480.151 1489.14 481.105 1490.1 481.105 1491.28 481.105 1492.45 480.141 1493.41 478.973 1493.41Z" fill="#FFFFFF" fill-rule="nonzero" fill-opacity="1"/></g></g></g></g></g></svg>