<svg width="119" height="119" xmlns="http://www.w3.org/2000/svg" xmlns:xlink="http://www.w3.org/1999/xlink" xml:space="preserve" overflow="hidden"><g transform="translate(-362 -1645)"><g><g><g><g><path d="M44.0138 80.3026C43.2039 77.1254 41.3038 75.1007 38.1889 74.1662L38.0954 74.1662 38.0954 74.1039 38.0643 74.0416C37.5659 73.0137 36.9118 72.2661 36.1642 71.7988 35.074 70.8332 33.61 70.366 31.741 70.366 30.495 70.2102 29.436 70.5217 28.6884 71.3005 28.0966 70.8021 27.5047 70.5217 26.6325 70.366 25.262 70.2102 23.9849 70.366 22.552 70.8332 20.6208 71.5497 19.3125 72.5776 18.4715 74.135L18.4092 74.1973C16.6025 74.6334 15.2631 75.7548 14.204 77.6549 12.9581 80.178 12.8023 82.7945 13.7368 85.4422 13.8614 85.9717 14.0171 86.5324 14.2663 86.9996 13.2695 88.2768 12.8646 89.7719 13.2072 91.2359 13.5499 92.8245 14.7024 94.1951 16.4468 95.0984 16.4468 95.1296 16.4156 95.1296 16.4156 95.1607L16.3533 95.223 16.3222 95.2853C16.0107 96.2509 16.0107 97.2477 16.3222 98.2133 16.7271 99.6151 17.7862 100.55 19.5617 101.141 19.8109 101.235 20.0601 101.266 20.2781 101.297 20.465 101.328 20.6208 101.359 20.7765 101.391 21.4306 102.948 22.5832 103.851 24.2964 104.163 24.8259 104.256 25.3866 104.319 25.9161 104.319 26.9129 104.319 27.8785 104.069 28.7507 103.26 29.9344 104.505 31.5853 104.443 33.0493 104.163 34.7313 103.851 35.8527 102.979 36.538 101.453 37.1298 101.422 37.6282 101.328 38.1889 101.204L38.5004 101.141C39.9644 100.861 41.0858 100.02 41.6464 98.774 42.176 97.6215 42.176 96.2509 41.6153 95.1607L41.6153 95.1296C43.0793 94.3508 43.8892 93.2295 44.2007 91.4851 44.3564 89.6473 43.9826 88.3079 42.9236 87.1865 43.1416 86.8128 43.2974 86.5324 43.4219 86.1275 44.263 84.0093 44.4499 82.1715 44.0138 80.3026ZM41.6153 85.0995C41.3038 85.8783 41.0235 86.5947 40.5874 87.3111L40.4316 87.5603 40.6497 87.7161C41.9891 88.744 42.4563 90.0211 42.0514 91.4851 41.9579 91.9835 41.7087 92.4196 41.3038 92.7622L41.3038 89.8654 34.7936 89.8654 34.7936 88.0899C36.0084 87.28 36.4757 86.2832 36.133 85.0995 35.7904 84.0716 34.7625 83.3863 33.5788 83.3863 32.6132 83.3863 31.6787 84.1339 31.3049 85.2553L31.3049 85.3176C31.1492 86.4701 31.6164 87.4669 32.6755 88.121L32.6755 92.0458 39.3103 92.0458C39.3103 92.077 39.3414 92.077 39.3414 92.077L39.3414 93.1983C39.1857 94.1639 39.3414 95.1296 39.8086 96.064 40.0578 96.6247 40.089 97.1854 39.8709 97.6838 39.6529 98.2445 39.1545 98.7117 38.4692 98.9609 38.002 99.1478 37.4413 99.2101 36.8495 99.2724 36.5691 99.3036 36.2888 99.3347 35.9773 99.397L35.3855 99.397 35.074 99.397 35.074 99.7085C35.074 99.7397 35.0428 99.7708 35.0428 99.8019 35.0117 99.8954 34.9494 99.9888 34.9494 100.113 34.6379 101.11 34.0772 101.733 33.2362 101.982 32.4886 102.138 31.7722 102.263 31.0869 102.138L31.0246 102.138C30.2147 102.138 29.7786 101.391 29.654 100.768L29.654 97.1854 32.2082 97.1854C32.987 98.3068 34.0772 98.7429 35.1986 98.3691 36.3822 98.0265 37.0987 96.9985 36.9429 95.9395 36.9429 94.9115 36.0707 93.8836 35.0428 93.6967 34.0149 93.3541 33.0181 93.8525 32.2082 95.0361L29.654 95.0361 29.654 80.3649 35.1051 80.3649C35.8527 81.3305 36.7249 82.1092 38.0954 81.7043 39.1545 81.3616 39.9644 80.3026 39.9644 79.2746L39.9644 79.2123C39.7775 78.091 39.0299 77.1565 38.0643 76.845 36.9118 76.5024 35.915 76.9696 35.074 78.1844L29.654 78.1844C29.7163 77.5303 29.7163 76.8762 29.7163 76.222 29.7163 75.4744 29.7163 74.7269 29.7786 73.9481 29.7786 72.671 30.1835 72.2972 31.5541 72.2972 31.8033 72.3595 32.0525 72.3907 32.3017 72.4218 32.8001 72.4841 33.2673 72.5464 33.7657 72.7333 35.1674 73.1694 36.0084 73.9793 36.4134 75.3498L36.4134 75.9105 37.3167 75.9105C39.4349 76.3155 40.9612 77.7483 41.7399 80.0845 42.3006 81.642 42.2383 83.1994 41.6153 85.0995ZM33.7346 85.5045C34.0149 85.5045 34.1706 85.6602 34.1706 85.9406 34.1706 86.0652 34.0149 86.2209 33.7346 86.2209 33.4542 86.2209 33.2985 86.0652 33.2985 85.7848 33.2673 85.6914 33.4231 85.5045 33.7346 85.5045ZM34.046 95.9395C34.046 95.8149 34.2018 95.6591 34.4821 95.6591 34.7625 95.6591 34.9182 95.8149 34.9182 96.0952 34.9182 96.2198 34.7625 96.3755 34.4821 96.3755 34.2018 96.4067 34.046 96.2509 34.046 95.9395ZM36.9118 79.3058C36.9118 79.1812 37.0675 79.0255 37.3479 79.0255L37.4102 79.0255 37.4725 78.9943C37.5348 78.9632 37.6282 78.9632 37.7216 78.9943 37.7839 79.0566 37.8462 79.15 37.8462 79.3058 37.8462 79.5861 37.6905 79.7419 37.4102 79.7419 37.2233 79.7419 36.9118 79.5861 36.9118 79.3058ZM17.4747 93.3852C16.7894 93.1049 16.2287 92.5442 15.6369 91.9524 14.827 90.7375 14.9516 89.2424 15.9172 88.121L15.9484 88.0899C16.1664 87.7784 16.5091 87.6226 17.0386 87.6226L18.378 87.6226C19.0321 88.8063 20.1847 89.3047 21.3995 88.962 22.3963 88.6194 23.1127 87.6226 23.1127 86.5324 23.1127 85.411 22.3651 84.4454 21.2126 84.1028 19.7797 83.6978 18.9698 84.57 18.378 85.4422L15.8861 85.4422C15.5746 84.7881 15.2319 83.8224 15.2319 82.7011 15.0762 80.2714 15.7303 78.4336 17.2566 76.9073 17.9731 76.3466 18.378 76.0663 19.6551 75.9105L19.8109 75.8794 19.9043 75.7548C20.0601 75.5056 20.1847 75.2876 20.3093 75.0384 20.4339 74.8203 20.5273 74.6023 20.6519 74.4154 21.4929 73.4498 22.4897 72.8579 23.798 72.5776 24.7013 72.4218 25.5735 72.2972 26.5702 72.4218L26.6014 72.4218C27.0063 72.4218 27.2244 72.5776 27.349 72.9514 27.3801 73.0448 27.4113 73.1694 27.4424 73.2629 27.567 73.7301 27.6605 74.0727 27.6605 74.54L27.6605 81.7977 26.0096 81.7977 26.0096 78.309 22.9881 78.309C22.0225 76.9073 21.1503 76.4712 19.9978 76.8139 18.8764 77.1254 18.0977 78.1221 18.0977 79.2435 18.0977 80.3337 18.8452 81.2682 19.9978 81.6731 21.1814 82.0158 22.1782 81.5174 22.8323 80.3337L23.9849 80.3337 23.9849 83.9782 27.6293 83.9782 27.6293 89.1178 22.4897 89.1178 22.4897 93.7902C21.1814 94.6935 20.8076 95.5657 21.1503 96.7805L21.1814 96.8428C21.6798 97.8396 22.7077 98.5248 23.7357 98.5248L23.798 98.5248C24.7636 98.3691 25.8227 97.715 26.0096 96.6247 26.3211 95.4722 25.8538 94.4443 24.639 93.7902L24.639 91.2671 27.6605 91.2671 27.6605 100.487C27.6605 101.702 27.0375 102.294 25.7292 102.294 25.4489 102.232 25.1685 102.2 24.8882 102.138 24.6078 102.107 24.3275 102.076 24.1095 101.982 23.2684 101.733 22.6766 101.173 22.3651 100.269 22.3651 99.9577 22.3651 99.7397 22.1159 99.4905L22.0225 99.397 21.8979 99.397C21.6798 99.397 21.4306 99.3659 21.1814 99.3347 20.9322 99.3036 20.6831 99.2724 20.4339 99.2413 20.0289 99.1167 19.7486 98.9609 19.4371 98.8052 18.1911 98.2445 17.7239 97.0608 18.2223 95.7526 18.5338 95.2853 18.8452 94.8181 19.001 94.1639L19.0633 93.8836 17.4747 93.3852ZM20.247 86.5636C20.247 86.439 20.4339 86.1275 20.6831 86.1275 20.7453 86.1275 20.9322 86.3144 21.1191 86.657 21.088 86.9062 20.9322 87.0308 20.6831 87.0308 20.4027 86.9996 20.247 86.8439 20.247 86.5636ZM20.9945 79.3992C21.0257 79.4615 21.0257 79.555 20.9945 79.6484 20.9322 79.7107 20.8388 79.773 20.6831 79.773 20.4027 79.773 20.247 79.6173 20.247 79.3369 20.247 79.2123 20.4027 79.0566 20.6831 79.0566L20.7453 79.0566 20.8076 79.0255C20.8388 79.0255 20.8388 79.0255 20.8388 79.0255 20.9011 79.0566 20.9634 79.1812 20.9634 79.3369L20.9634 79.3992 20.9945 79.3992ZM23.5799 96.4067C23.2996 96.4067 23.1438 96.2509 23.1438 95.9706 23.1438 95.846 23.2996 95.6903 23.5799 95.6903 23.8603 95.6903 24.016 95.846 24.016 96.1264 24.016 96.2198 23.8603 96.4067 23.5799 96.4067Z" fill="#FFFFFF" fill-rule="nonzero" fill-opacity="1" transform="matrix(1.0054 0 0 1 365 1648.06)"/><path d="M49.0288 58.1244 1.30827 58.1244 1.30827 115.875 59.0588 115.875 59.0588 68.1855C59.09 62.6098 54.5733 58.1244 49.0288 58.1244ZM55.9751 112.76 4.42318 112.76 4.42318 61.2393 48.9977 61.2393C52.829 61.2393 55.9439 64.3542 55.9439 68.1855L55.9439 112.76Z" fill="#FFFFFF" fill-rule="nonzero" fill-opacity="1" transform="matrix(1.0054 0 0 1 365 1648.06)"/><path d="M112.262 112.324 64.8837 112.324 64.8837 115.439 115.377 115.439 115.377 31.0869 112.262 31.0869Z" fill="#FFFFFF" fill-rule="nonzero" fill-opacity="1" transform="matrix(1.0054 0 0 1 365 1648.06)"/><path d="M0 0 5.85604 0 5.85604 5.85604-2.37649e-07 5.85604Z" fill="#FFFFFF" fill-rule="nonzero" fill-opacity="1" transform="matrix(1.0054 0 0 1 365 1648.06)"/><path d="M7.13316 1.40171 85.6914 1.40171 85.6914 4.51663 7.13316 4.51663Z" fill="#FFFFFF" fill-rule="nonzero" fill-opacity="1" transform="matrix(1.0054 0 0 1 365 1648.06)"/><path d="M1.30827 7.13316 4.42318 7.13316 4.42318 52.0814 1.30827 52.0814Z" fill="#FFFFFF" fill-rule="nonzero" fill-opacity="1" transform="matrix(1.0054 0 0 1 365 1648.06)"/><path d="M90.7375 1.40171 90.7375 4.51663 110.081 4.51663 57.844 57.7817 60.0868 59.9622 112.262 6.75937 112.262 26.0096 115.377 26.0096 115.377 1.40171Z" fill="#FFFFFF" fill-rule="nonzero" fill-opacity="1" transform="matrix(1.0054 0 0 1 365 1648.06)"/><path d="M80.2403 101.733 84.6635 101.733 84.6635 104.848 80.2403 104.848Z" fill="#FFFFFF" fill-rule="nonzero" fill-opacity="1" transform="matrix(1.0054 0 0 1 365 1648.06)"/><path d="M90.9556 101.297 103.571 101.297 103.571 104.412 90.9556 104.412Z" fill="#FFFFFF" fill-rule="nonzero" fill-opacity="1" transform="matrix(1.0054 0 0 1 365 1648.06)"/><path d="M102.45 72.3595 105.565 72.3595 105.565 97.6215 102.45 97.6215Z" fill="#FFFFFF" fill-rule="nonzero" fill-opacity="1" transform="matrix(1.0054 0 0 1 365 1648.06)"/></g></g></g></g></g></svg>