<svg width="143" height="133" xmlns="http://www.w3.org/2000/svg" xmlns:xlink="http://www.w3.org/1999/xlink" xml:space="preserve" overflow="hidden"><g transform="translate(-352 -1897)"><g><path d="M405.501 1970C393.582 1970 384 1960.42 384 1948.5 384 1936.67 393.582 1927 405.501 1927 417.332 1927 427 1936.67 427 1948.5 427 1960.42 417.332 1970 405.501 1970ZM405.501 1930.33C395.5 1930.33 387.333 1938.5 387.333 1948.5 387.333 1958.58 395.5 1966.66 405.501 1966.66 415.5 1966.66 423.667 1958.58 423.667 1948.5 423.667 1938.5 415.5 1930.33 405.501 1930.33Z" fill="#FFFFFF" fill-rule="evenodd" fill-opacity="1"/><path d="M405.713 1959C403.428 1959 401.389 1957.85 400.246 1955.89 399.757 1955.07 400.084 1954.09 400.819 1953.68 401.634 1953.19 402.612 1953.44 403.101 1954.26 403.59 1955.16 404.651 1955.73 405.713 1955.73 407.344 1955.73 408.73 1954.34 408.73 1952.7 408.73 1950.9 407.344 1949.59 406.04 1949.59 402.774 1949.59 400 1946.73 400 1943.3 400 1939.78 402.858 1937 406.364 1937 408.568 1937 410.688 1938.15 411.75 1940.11 412.239 1940.84 411.993 1941.91 411.177 1942.32 410.445 1942.81 409.465 1942.56 408.976 1941.74 408.403 1940.84 407.425 1940.27 406.364 1940.27 404.651 1940.27 403.266 1941.58 403.266 1943.3 403.266 1945.01 404.732 1946.32 406.04 1946.32 409.303 1946.32 411.993 1949.27 411.993 1952.7 411.993 1956.14 409.138 1959 405.713 1959Z" fill="#FFFFFF" fill-rule="evenodd" fill-opacity="1"/><path d="M405.501 1963C404.675 1963 404 1962.24 404 1961.31L404 1957.69C404 1956.76 404.675 1956 405.501 1956 406.325 1956 407 1956.76 407 1957.69L407 1961.31C407 1962.24 406.325 1963 405.501 1963Z" fill="#FFFFFF" fill-rule="evenodd" fill-opacity="1"/><path d="M405.501 1941C404.675 1941 404 1940.24 404 1939.31L404 1935.69C404 1934.76 404.675 1934 405.501 1934 406.325 1934 407 1934.76 407 1935.69L407 1939.31C407 1940.24 406.325 1941 405.501 1941Z" fill="#FFFFFF" fill-rule="evenodd" fill-opacity="1"/><path d="M405.501 2018C393.582 2018 384 2008.64 384 1997 384 1985.44 393.582 1976 405.501 1976 417.332 1976 427 1985.44 427 1997 427 2008.64 417.332 2018 405.501 2018ZM405.501 1979.26C395.5 1979.26 387.333 1987.23 387.333 1997 387.333 2006.85 395.5 2014.74 405.501 2014.74 415.5 2014.74 423.667 2006.85 423.667 1997 423.667 1987.23 415.5 1979.26 405.501 1979.26Z" fill="#FFFFFF" fill-rule="evenodd" fill-opacity="1"/><path d="M405.713 2008C403.428 2008 401.389 2006.85 400.246 2004.89 399.757 2004.07 400.084 2003.09 400.819 2002.68 401.634 2002.19 402.612 2002.44 403.101 2003.26 403.59 2004.16 404.651 2004.73 405.713 2004.73 407.344 2004.73 408.73 2003.34 408.73 2001.7 408.73 1999.9 407.344 1998.6 406.04 1998.6 402.774 1998.6 400 1995.73 400 1992.3 400 1988.78 402.858 1986 406.364 1986 408.568 1986 410.688 1987.15 411.75 1989.11 412.239 1989.93 411.993 1990.91 411.177 1991.32 410.445 1991.81 409.465 1991.56 408.976 1990.74 408.403 1989.84 407.425 1989.27 406.364 1989.27 404.651 1989.27 403.266 1990.58 403.266 1992.3 403.266 1994.01 404.732 1995.33 406.04 1995.33 409.303 1995.33 411.993 1998.27 411.993 2001.7 411.993 2005.22 409.138 2008 405.713 2008Z" fill="#FFFFFF" fill-rule="evenodd" fill-opacity="1"/><path d="M405.501 2012C404.675 2012 404 2011.24 404 2010.31L404 2006.69C404 2005.76 404.675 2005 405.501 2005 406.325 2005 407 2005.76 407 2006.69L407 2010.31C407 2011.24 406.325 2012 405.501 2012Z" fill="#FFFFFF" fill-rule="evenodd" fill-opacity="1"/><path d="M405.501 1989C404.675 1989 404 1988.35 404 1987.55L404 1984.45C404 1983.65 404.675 1983 405.501 1983 406.325 1983 407 1983.65 407 1984.45L407 1987.55C407 1988.35 406.325 1989 405.501 1989Z" fill="#FFFFFF" fill-rule="evenodd" fill-opacity="1"/><path d="M485.508 2008 465.611 2008C464.726 2008 464 2007.26 464 2006.35L464 1998.03C464 1997.12 464.726 1996.38 465.611 1996.38L478.581 1996.38C478.661 1996.38 478.741 1996.3 478.741 1996.22L478.741 1979.24C478.741 1979.16 478.661 1979.07 478.581 1979.07L465.611 1979.07C464.726 1979.07 464 1978.33 464 1977.43L464 1967.7C464 1966.8 464.726 1966.05 465.611 1966.05L478.581 1966.05C478.661 1966.05 478.741 1965.97 478.741 1965.89L478.741 1948.91C478.741 1948.83 478.661 1948.75 478.581 1948.75L465.611 1948.75C464.726 1948.75 464 1948.01 464 1947.1L464 1920.65C464 1919.74 464.726 1919 465.611 1919L485.508 1919C489.698 1919 493 1922.46 493 1926.66L493 2000.34C493 2004.62 489.698 2008 485.508 2008ZM467.222 2004.7 485.508 2004.7C487.927 2004.7 489.778 2002.81 489.778 2000.34L489.778 1926.66C489.778 1924.27 487.927 1922.3 485.508 1922.3L467.222 1922.3 467.222 1945.45 478.581 1945.45C480.435 1945.45 481.963 1947.02 481.963 1948.91L481.963 1965.89C481.963 1967.78 480.435 1969.35 478.581 1969.35L467.222 1969.35 467.222 1975.78 478.581 1975.78C480.435 1975.78 481.963 1977.34 481.963 1979.24L481.963 1996.22C481.963 1998.11 480.435 1999.68 478.581 1999.68L467.222 1999.68Z" fill="#FFFFFF" fill-rule="evenodd" fill-opacity="1"/><path d="M381.416 2008 360.75 2008C356.501 2008 353 2004.62 353 2000.34L353 1926.66C353 1922.46 356.501 1919 360.75 1919L381.416 1919C382.335 1919 383 1919.74 383 1920.65L383 2006.35C383 2007.26 382.335 2008 381.416 2008ZM360.75 1922.3C359.583 1922.3 358.502 1922.71 357.666 1923.53 356.832 1924.36 356.333 1925.51 356.333 1926.66L356.333 2000.34C356.333 2002.81 358.333 2004.7 360.75 2004.7L379.75 2004.7 379.75 1922.3Z" fill="#FFFFFF" fill-rule="evenodd" fill-opacity="1"/><path d="M491.359 1938 465.099 1938C464.197 1938 463.458 1937.1 463.458 1936 463.458 1934.9 464.197 1934 465.099 1934L491.359 1934C492.264 1934 493 1934.9 493 1936 493 1937.1 492.264 1938 491.359 1938ZM380.983 1938 354.641 1938C353.739 1938 353 1937.1 353 1936 353 1934.9 353.739 1934 354.641 1934L380.983 1934C381.887 1934 382.542 1934.9 382.542 1936 382.542 1937.1 381.887 1938 380.983 1938Z" fill="#FFFFFF" fill-rule="evenodd" fill-opacity="1"/><path d="M459.316 2027 386.603 2027C382.39 2027 379 2023.55 379 2019.35L379 1908.57C379 1904.38 382.39 1901 386.603 1901L459.316 1901C463.613 1901 467 1904.38 467 1908.57L467 1947.01C467 1947.91 466.256 1948.65 465.348 1948.65L452.044 1948.65C451.962 1948.65 451.88 1948.74 451.88 1948.82L451.88 1965.77C451.88 1965.85 451.962 1965.93 452.044 1965.93L465.348 1965.93C466.256 1965.93 467 1966.68 467 1967.58L467 1977.29C467 1978.2 466.256 1978.94 465.348 1978.94L452.044 1978.94C451.962 1978.94 451.88 1979.02 451.88 1979.1L451.88 1996.06C451.88 1996.14 451.962 1996.22 452.044 1996.22L465.348 1996.22C466.256 1996.22 467 1996.96 467 1997.87L467 2019.35C467 2023.55 463.613 2027 459.316 2027ZM386.603 1904.29C384.206 1904.29 382.223 1906.19 382.223 1908.57L382.223 2019.35C382.223 2021.73 384.206 2023.71 386.603 2023.71L459.316 2023.71C461.794 2023.71 463.695 2021.73 463.695 2019.35L463.695 1999.51 452.044 1999.51C450.146 1999.51 448.575 1997.95 448.575 1996.06L448.575 1979.1C448.575 1977.21 450.146 1975.65 452.044 1975.65L463.695 1975.65 463.695 1969.23 452.044 1969.23C450.146 1969.23 448.575 1967.66 448.575 1965.77L448.575 1948.82C448.575 1946.92 450.146 1945.36 452.044 1945.36L463.695 1945.36 463.695 1908.57C463.695 1906.19 461.794 1904.29 459.316 1904.29Z" fill="#FFFFFF" fill-rule="evenodd" fill-opacity="1"/><path d="M465.348 1922 380.653 1922C379.662 1922 379 1921.32 379 1920.5 379 1919.68 379.662 1919 380.653 1919L465.348 1919C466.256 1919 467 1919.68 467 1920.5 467 1921.32 466.256 1922 465.348 1922Z" fill="#FFFFFF" fill-rule="evenodd" fill-opacity="1"/><path d="M364.606 1976C364.207 1976 363.808 1975.85 363.488 1975.55 362.851 1975.02 362.851 1974.04 363.409 1973.43L370.276 1966.49C370.834 1965.89 371.873 1965.81 372.509 1966.42 373.149 1966.94 373.149 1967.93 372.592 1968.53L365.724 1975.47C365.404 1975.77 365.005 1976 364.606 1976Z" fill="#FFFFFF" fill-rule="evenodd" fill-opacity="1"/><path d="M371.391 1976C370.992 1976 370.514 1975.77 370.276 1975.47L363.409 1968.53C362.851 1967.93 362.851 1966.94 363.488 1966.42 364.128 1965.81 365.167 1965.89 365.724 1966.49L372.592 1973.43C373.149 1974.04 373.149 1975.02 372.509 1975.55 372.192 1975.85 371.79 1976 371.391 1976Z" fill="#FFFFFF" fill-rule="evenodd" fill-opacity="1"/><path d="M366.16 1957C365.669 1957 365.26 1956.84 365.016 1956.5L361.492 1952.93C360.836 1952.27 360.836 1951.28 361.492 1950.61 362.146 1949.95 363.131 1949.95 363.787 1950.61L365.998 1952.85 371.078 1946.63C371.651 1945.88 372.717 1945.8 373.454 1946.38 374.108 1946.96 374.189 1948.04 373.617 1948.7L367.392 1956.34C367.145 1956.75 366.654 1956.92 366.245 1957 366.16 1957 366.16 1957 366.16 1957Z" fill="#FFFFFF" fill-rule="evenodd" fill-opacity="1"/><path d="M364.606 1996C364.207 1996 363.808 1995.84 363.488 1995.5 362.851 1994.92 362.851 1993.84 363.409 1993.18L370.276 1985.54C370.834 1984.88 371.873 1984.79 372.509 1985.46 373.149 1986.04 373.149 1987.12 372.592 1987.78L365.724 1995.42C365.404 1995.75 365.005 1996 364.606 1996Z" fill="#FFFFFF" fill-rule="evenodd" fill-opacity="1"/><path d="M371.391 1996C370.992 1996 370.514 1995.75 370.276 1995.42L363.409 1987.78C362.851 1987.12 362.851 1986.04 363.488 1985.46 364.128 1984.79 365.167 1984.88 365.724 1985.54L372.592 1993.18C373.149 1993.84 373.149 1994.92 372.509 1995.5 372.192 1995.84 371.79 1996 371.391 1996Z" fill="#FFFFFF" fill-rule="evenodd" fill-opacity="1"/><path d="M394.04 1917C390.684 1917 388 1914.32 388 1911.04 388 1907.69 390.684 1905 394.04 1905 397.313 1905 400 1907.69 400 1911.04 400 1914.32 397.313 1917 394.04 1917ZM394.04 1908.36C392.532 1908.36 391.356 1909.53 391.356 1911.04 391.356 1912.47 392.532 1913.64 394.04 1913.64 395.469 1913.64 396.644 1912.47 396.644 1911.04 396.644 1909.53 395.469 1908.36 394.04 1908.36Z" fill="#FFFFFF" fill-rule="evenodd" fill-opacity="1"/><path d="M409 1917C405.75 1917 403 1914.32 403 1911.04 403 1907.69 405.75 1905 409 1905 412.25 1905 415 1907.69 415 1911.04 415 1914.32 412.25 1917 409 1917ZM409 1908.36C407.585 1908.36 406.335 1909.53 406.335 1911.04 406.335 1912.47 407.585 1913.64 409 1913.64 410.418 1913.64 411.668 1912.47 411.668 1911.04 411.668 1909.53 410.418 1908.36 409 1908.36Z" fill="#FFFFFF" fill-rule="evenodd" fill-opacity="1"/><path d="M422.958 1917C419.686 1917 417 1914.32 417 1911.04 417 1907.69 419.686 1905 422.958 1905 426.314 1905 429 1907.69 429 1911.04 429 1914.32 426.314 1917 422.958 1917ZM422.958 1908.36C421.53 1908.36 420.358 1909.53 420.358 1911.04 420.358 1912.47 421.53 1913.64 422.958 1913.64 424.47 1913.64 425.642 1912.47 425.642 1911.04 425.642 1909.53 424.47 1908.36 422.958 1908.36Z" fill="#FFFFFF" fill-rule="evenodd" fill-opacity="1"/><path d="M478.588 1969 452.412 1969C450.545 1969 449 1967.43 449 1965.53L449 1948.48C449 1946.57 450.545 1945 452.412 1945L478.588 1945C480.458 1945 482 1946.57 482 1948.48L482 1965.53C482 1967.43 480.458 1969 478.588 1969ZM452.412 1948.31C452.332 1948.31 452.251 1948.39 452.251 1948.48L452.251 1965.53C452.251 1965.61 452.332 1965.69 452.412 1965.69L478.588 1965.69C478.668 1965.69 478.749 1965.61 478.749 1965.53L478.749 1948.48C478.749 1948.39 478.668 1948.31 478.588 1948.31Z" fill="#FFFFFF" fill-rule="evenodd" fill-opacity="1"/><path d="M469.298 1955 456.702 1955C455.767 1955 455 1954.1 455 1953 455 1951.9 455.767 1951 456.702 1951L469.298 1951C470.233 1951 471 1951.9 471 1953 471 1954.1 470.233 1955 469.298 1955Z" fill="#FFFFFF" fill-rule="evenodd" fill-opacity="1"/><path d="M474.307 1963 456.694 1963C455.763 1963 455 1962.32 455 1961.5 455 1960.68 455.763 1960 456.694 1960L474.307 1960C475.241 1960 476 1960.68 476 1961.5 476 1962.32 475.241 1963 474.307 1963Z" fill="#FFFFFF" fill-rule="evenodd" fill-opacity="1"/><path d="M478.588 1999 452.412 1999C450.545 1999 449 1997.43 449 1995.53L449 1978.48C449 1976.57 450.545 1975 452.412 1975L478.588 1975C480.458 1975 482 1976.57 482 1978.48L482 1995.53C482 1997.43 480.458 1999 478.588 1999ZM452.412 1978.31C452.332 1978.31 452.251 1978.39 452.251 1978.48L452.251 1995.53C452.251 1995.61 452.332 1995.69 452.412 1995.69L478.588 1995.69C478.668 1995.69 478.749 1995.61 478.749 1995.53L478.749 1978.48C478.749 1978.39 478.668 1978.31 478.588 1978.31Z" fill="#FFFFFF" fill-rule="evenodd" fill-opacity="1"/><path d="M469.298 1985 456.702 1985C455.767 1985 455 1984.32 455 1983.5 455 1982.68 455.767 1982 456.702 1982L469.298 1982C470.233 1982 471 1982.68 471 1983.5 471 1984.32 470.233 1985 469.298 1985Z" fill="#FFFFFF" fill-rule="evenodd" fill-opacity="1"/><path d="M474.307 1993 456.694 1993C455.763 1993 455 1992.32 455 1991.5 455 1990.68 455.763 1990 456.694 1990L474.307 1990C475.241 1990 476 1990.68 476 1991.5 476 1992.32 475.241 1993 474.307 1993Z" fill="#FFFFFF" fill-rule="evenodd" fill-opacity="1"/><path d="M444.334 1944 430.666 1944C429.75 1944 429 1943.2 429 1942 429 1940.9 429.75 1940 430.666 1940L444.334 1940C445.249 1940 446 1940.9 446 1942 446 1943.2 445.249 1944 444.334 1944Z" fill="#FFFFFF" fill-rule="evenodd" fill-opacity="1"/><path d="M444.334 1956 430.666 1956C429.75 1956 429 1955.32 429 1954.5 429 1953.68 429.75 1953 430.666 1953L444.334 1953C445.249 1953 446 1953.68 446 1954.5 446 1955.32 445.249 1956 444.334 1956Z" fill="#FFFFFF" fill-rule="evenodd" fill-opacity="1"/><path d="M444.334 1993 430.666 1993C429.75 1993 429 1992.1 429 1991 429 1989.8 429.75 1989 430.666 1989L444.334 1989C445.249 1989 446 1989.8 446 1991 446 1992.1 445.249 1993 444.334 1993Z" fill="#FFFFFF" fill-rule="evenodd" fill-opacity="1"/><path d="M444.334 2005 430.666 2005C429.75 2005 429 2004.33 429 2003.5 429 2002.68 429.75 2002 430.666 2002L444.334 2002C445.249 2002 446 2002.68 446 2003.5 446 2004.33 445.249 2005 444.334 2005Z" fill="#FFFFFF" fill-rule="evenodd" fill-opacity="1"/></g></g></svg>