<svg width="128" height="129" xmlns="http://www.w3.org/2000/svg" xmlns:xlink="http://www.w3.org/1999/xlink" xml:space="preserve" overflow="hidden"><defs><clipPath id="clip0"><rect x="357" y="870" width="128" height="129"/></clipPath><clipPath id="clip1"><rect x="357" y="870" width="128" height="129"/></clipPath></defs><g clip-path="url(#clip0)" transform="translate(-357 -870)"><g clip-path="url(#clip1)"><g><g><g><path d="M368.755 973.351 368.755 977.93C368.755 980.935 371.216 983.396 374.221 983.396L388.53 983.396C391.535 983.396 393.996 980.935 393.996 977.93L393.996 973.351C393.996 970.346 391.535 967.885 388.53 967.885L374.221 967.885C371.188 967.885 368.755 970.317 368.755 973.351ZM390.276 973.351 390.276 977.93C390.276 978.903 389.503 979.675 388.53 979.675L374.221 979.675C373.248 979.675 372.476 978.903 372.476 977.93L372.476 973.351C372.476 972.378 373.248 971.605 374.221 971.605L388.53 971.605C389.474 971.605 390.276 972.378 390.276 973.351Z" fill="#FFFFFF" fill-rule="nonzero" fill-opacity="1"/><path d="M397.774 973.351 397.774 977.93C397.774 980.935 400.235 983.396 403.24 983.396L417.548 983.396C420.553 983.396 423.014 980.935 423.014 977.93L423.014 973.351C423.014 970.346 420.553 967.885 417.548 967.885L403.24 967.885C400.206 967.885 397.774 970.317 397.774 973.351ZM419.294 973.351 419.294 977.93C419.294 978.903 418.521 979.675 417.548 979.675L403.24 979.675C402.267 979.675 401.494 978.903 401.494 977.93L401.494 973.351C401.494 972.378 402.267 971.605 403.24 971.605L417.548 971.605C418.493 971.605 419.294 972.378 419.294 973.351Z" fill="#FFFFFF" fill-rule="nonzero" fill-opacity="1"/><path d="M384.438 956.381 407.303 956.381 407.303 960.101 384.438 960.101Z" fill="#FFFFFF" fill-rule="nonzero" fill-opacity="1"/><path d="M383.465 918.405C387.185 918.405 390.219 915.372 390.219 911.651 390.219 907.931 387.185 904.898 383.465 904.898 379.744 904.898 376.711 907.931 376.711 911.651 376.711 915.372 379.716 918.405 383.465 918.405ZM383.465 908.618C385.153 908.618 386.498 909.992 386.498 911.651 386.498 913.34 385.125 914.685 383.465 914.685 381.805 914.685 380.431 913.311 380.431 911.651 380.431 909.963 381.776 908.618 383.465 908.618Z" fill="#FFFFFF" fill-rule="nonzero" fill-opacity="1"/><path d="M393.309 926.676 388.816 922.984 375.709 937.836 378.485 940.298 389.217 928.135 393.882 931.97 400.349 923.785 412.998 940.011 415.917 937.722 400.349 917.776Z" fill="#FFFFFF" fill-rule="nonzero" fill-opacity="1"/><path d="M452.176 911.823C440.385 911.823 430.798 921.381 430.798 933.2 430.798 945.019 440.357 954.578 452.176 954.578 463.966 954.578 473.553 945.019 473.553 933.2 473.553 921.381 463.966 911.823 452.176 911.823ZM452.176 950.829C442.446 950.829 434.519 942.902 434.519 933.172 434.519 923.442 442.446 915.515 452.176 915.515 461.906 915.515 469.833 923.442 469.833 933.172 469.804 942.902 461.906 950.829 452.176 950.829Z" fill="#FFFFFF" fill-rule="nonzero" fill-opacity="1"/><path d="M453.692 919.779 449.972 919.779 449.972 934.66 461.333 937.293 462.192 933.687 453.692 931.712Z" fill="#FFFFFF" fill-rule="nonzero" fill-opacity="1"/><path d="M427.049 987.259C427.049 989.434 425.275 991.18 423.129 991.18L368.641 991.18C366.466 991.18 364.72 989.405 364.72 987.259L364.72 878.741C364.72 876.595 366.495 874.82 368.641 874.82L388.416 874.82 388.416 877.053C388.416 881.231 391.792 884.608 395.971 884.608 400.149 884.608 403.526 881.231 403.526 877.053L403.526 874.82 423.1 874.82C425.275 874.82 427.021 876.595 427.021 878.741L427.021 898.115 430.741 898.115 430.741 878.741C430.77 874.534 427.336 871.1 423.1 871.1L368.641 871.1C364.434 871.1 361 874.534 361 878.741L361 987.259C361 991.495 364.434 994.9 368.641 994.9L423.1 994.9C427.336 994.9 430.741 991.466 430.741 987.259L430.741 967.885 427.021 967.885 427.021 987.259ZM399.805 877.053C399.805 879.17 398.088 880.887 395.971 880.887 393.853 880.887 392.136 879.17 392.136 877.053L392.136 874.82 399.805 874.82 399.805 877.053Z" fill="#FFFFFF" fill-rule="nonzero" fill-opacity="1"/><path d="M477.159 902.093 423.3 902.093C423.129 902.093 422.957 902.093 422.814 902.122L422.814 894.166 368.956 894.166 368.956 952.374 415.459 952.374 415.459 955.866C415.459 960.187 418.979 963.707 423.3 963.707L434.833 963.707 434.719 973.637 448.942 963.707 477.159 963.707C481.48 963.707 485 960.187 485 955.866L485 909.963C485 905.613 481.509 902.093 477.159 902.093ZM372.676 897.886 419.094 897.886 419.094 948.654 372.676 948.654 372.676 897.886ZM481.28 955.866C481.28 958.155 479.42 959.987 477.159 959.987L448.942 959.987 447.769 959.987 446.796 960.645 438.525 966.425 438.554 963.735 438.582 959.987 434.833 959.987 423.3 959.987C421.011 959.987 419.18 958.126 419.18 955.866L419.18 952.374 422.814 952.374 422.814 905.842C422.986 905.813 423.129 905.813 423.3 905.813L477.159 905.813C479.448 905.813 481.28 907.674 481.28 909.934L481.28 955.866Z" fill="#FFFFFF" fill-rule="nonzero" fill-opacity="1"/></g></g></g></g></g></svg>