<svg width="208" height="180" xmlns="http://www.w3.org/2000/svg" xmlns:xlink="http://www.w3.org/1999/xlink" xml:space="preserve" overflow="hidden"><g transform="translate(-544 -364)"><g><g><g><g><path d="M0.771345 177.489 204.69 177.489 102.731 0.886604 0.771345 177.489Z" stroke="#2D2D2D" stroke-width="0.886604" stroke-linecap="butt" stroke-linejoin="miter" stroke-miterlimit="10" stroke-opacity="1" fill="none" fill-rule="nonzero" transform="matrix(1.00266 0 0 1 545 365.034)"/><path d="M102.731 0.886604 204.69 177.489" stroke="#2D2D2D" stroke-width="0.886604" stroke-linecap="butt" stroke-linejoin="miter" stroke-miterlimit="10" stroke-opacity="1" fill="none" fill-rule="nonzero" transform="matrix(1.00266 0 0 1 545 365.034)"/><path d="M102.731 0.886604 0.771345 177.489" stroke="#2D2D2D" stroke-width="0.886604" stroke-linecap="butt" stroke-linejoin="miter" stroke-miterlimit="10" stroke-opacity="1" fill="none" fill-rule="nonzero" transform="matrix(1.00266 0 0 1 545 365.034)"/><path d="M102.731 4.699 204.69 177.489" stroke="#2D2D2D" stroke-width="0.886604" stroke-linecap="butt" stroke-linejoin="miter" stroke-miterlimit="10" stroke-opacity="1" fill="none" fill-rule="nonzero" transform="matrix(1.00266 0 0 1 545 365.034)"/><path d="M102.731 4.699 0.771345 177.489" stroke="#2D2D2D" stroke-width="0.886604" stroke-linecap="butt" stroke-linejoin="miter" stroke-miterlimit="10" stroke-opacity="1" fill="none" fill-rule="nonzero" transform="matrix(1.00266 0 0 1 545 365.034)"/><path d="M102.731 8.50253 204.69 177.489" stroke="#2D2D2D" stroke-width="0.886604" stroke-linecap="butt" stroke-linejoin="miter" stroke-miterlimit="10" stroke-opacity="1" fill="none" fill-rule="nonzero" transform="matrix(1.00266 0 0 1 545 365.034)"/><path d="M102.731 8.50253 0.771345 177.489" stroke="#2D2D2D" stroke-width="0.886604" stroke-linecap="butt" stroke-linejoin="miter" stroke-miterlimit="10" stroke-opacity="1" fill="none" fill-rule="nonzero" transform="matrix(1.00266 0 0 1 545 365.034)"/><path d="M102.731 12.3149 204.69 177.489" stroke="#2D2D2D" stroke-width="0.886604" stroke-linecap="butt" stroke-linejoin="miter" stroke-miterlimit="10" stroke-opacity="1" fill="none" fill-rule="nonzero" transform="matrix(1.00266 0 0 1 545 365.034)"/><path d="M102.731 12.3149 0.771345 177.489" stroke="#2D2D2D" stroke-width="0.886604" stroke-linecap="butt" stroke-linejoin="miter" stroke-miterlimit="10" stroke-opacity="1" fill="none" fill-rule="nonzero" transform="matrix(1.00266 0 0 1 545 365.034)"/><path d="M102.731 16.1273 204.69 177.489" stroke="#2D2D2D" stroke-width="0.886604" stroke-linecap="butt" stroke-linejoin="miter" stroke-miterlimit="10" stroke-opacity="1" fill="none" fill-rule="nonzero" transform="matrix(1.00266 0 0 1 545 365.034)"/><path d="M102.731 16.1273 0.771345 177.489" stroke="#2D2D2D" stroke-width="0.886604" stroke-linecap="butt" stroke-linejoin="miter" stroke-miterlimit="10" stroke-opacity="1" fill="none" fill-rule="nonzero" transform="matrix(1.00266 0 0 1 545 365.034)"/><path d="M102.731 19.9397 204.69 177.489" stroke="#2D2D2D" stroke-width="0.886604" stroke-linecap="butt" stroke-linejoin="miter" stroke-miterlimit="10" stroke-opacity="1" fill="none" fill-rule="nonzero" transform="matrix(1.00266 0 0 1 545 365.034)"/><path d="M102.731 19.9397 0.771345 177.489" stroke="#2D2D2D" stroke-width="0.886604" stroke-linecap="butt" stroke-linejoin="miter" stroke-miterlimit="10" stroke-opacity="1" fill="none" fill-rule="nonzero" transform="matrix(1.00266 0 0 1 545 365.034)"/><path d="M102.731 23.7433 204.69 177.489" stroke="#2D2D2D" stroke-width="0.886604" stroke-linecap="butt" stroke-linejoin="miter" stroke-miterlimit="10" stroke-opacity="1" fill="none" fill-rule="nonzero" transform="matrix(1.00266 0 0 1 545 365.034)"/><path d="M102.731 23.7433 0.771345 177.489" stroke="#2D2D2D" stroke-width="0.886604" stroke-linecap="butt" stroke-linejoin="miter" stroke-miterlimit="10" stroke-opacity="1" fill="none" fill-rule="nonzero" transform="matrix(1.00266 0 0 1 545 365.034)"/><path d="M102.731 27.5557 204.69 177.489" stroke="#2D2D2D" stroke-width="0.886604" stroke-linecap="butt" stroke-linejoin="miter" stroke-miterlimit="10" stroke-opacity="1" fill="none" fill-rule="nonzero" transform="matrix(1.00266 0 0 1 545 365.034)"/><path d="M102.731 27.5557 0.771345 177.489" stroke="#2D2D2D" stroke-width="0.886604" stroke-linecap="butt" stroke-linejoin="miter" stroke-miterlimit="10" stroke-opacity="1" fill="none" fill-rule="nonzero" transform="matrix(1.00266 0 0 1 545 365.034)"/><path d="M102.731 31.368 204.69 177.489" stroke="#2D2D2D" stroke-width="0.886604" stroke-linecap="butt" stroke-linejoin="miter" stroke-miterlimit="10" stroke-opacity="1" fill="none" fill-rule="nonzero" transform="matrix(1.00266 0 0 1 545 365.034)"/><path d="M102.731 31.368 0.771345 177.489" stroke="#2D2D2D" stroke-width="0.886604" stroke-linecap="butt" stroke-linejoin="miter" stroke-miterlimit="10" stroke-opacity="1" fill="none" fill-rule="nonzero" transform="matrix(1.00266 0 0 1 545 365.034)"/><path d="M102.731 35.1804 204.69 177.489" stroke="#2D2D2D" stroke-width="0.886604" stroke-linecap="butt" stroke-linejoin="miter" stroke-miterlimit="10" stroke-opacity="1" fill="none" fill-rule="nonzero" transform="matrix(1.00266 0 0 1 545 365.034)"/><path d="M102.731 35.1804 0.771345 177.489" stroke="#2D2D2D" stroke-width="0.886604" stroke-linecap="butt" stroke-linejoin="miter" stroke-miterlimit="10" stroke-opacity="1" fill="none" fill-rule="nonzero" transform="matrix(1.00266 0 0 1 545 365.034)"/><path d="M102.731 38.984 204.69 177.489" stroke="#2D2D2D" stroke-width="0.886604" stroke-linecap="butt" stroke-linejoin="miter" stroke-miterlimit="10" stroke-opacity="1" fill="none" fill-rule="nonzero" transform="matrix(1.00266 0 0 1 545 365.034)"/><path d="M102.731 38.984 0.771345 177.489" stroke="#2D2D2D" stroke-width="0.886604" stroke-linecap="butt" stroke-linejoin="miter" stroke-miterlimit="10" stroke-opacity="1" fill="none" fill-rule="nonzero" transform="matrix(1.00266 0 0 1 545 365.034)"/><path d="M102.731 42.7964 204.69 177.489" stroke="#2D2D2D" stroke-width="0.886604" stroke-linecap="butt" stroke-linejoin="miter" stroke-miterlimit="10" stroke-opacity="1" fill="none" fill-rule="nonzero" transform="matrix(1.00266 0 0 1 545 365.034)"/><path d="M102.731 42.7964 0.771345 177.489" stroke="#2D2D2D" stroke-width="0.886604" stroke-linecap="butt" stroke-linejoin="miter" stroke-miterlimit="10" stroke-opacity="1" fill="none" fill-rule="nonzero" transform="matrix(1.00266 0 0 1 545 365.034)"/><path d="M102.731 46.6088 204.69 177.489" stroke="#2D2D2D" stroke-width="0.886604" stroke-linecap="butt" stroke-linejoin="miter" stroke-miterlimit="10" stroke-opacity="1" fill="none" fill-rule="nonzero" transform="matrix(1.00266 0 0 1 545 365.034)"/><path d="M102.731 46.6088 0.771345 177.489" stroke="#2D2D2D" stroke-width="0.886604" stroke-linecap="butt" stroke-linejoin="miter" stroke-miterlimit="10" stroke-opacity="1" fill="none" fill-rule="nonzero" transform="matrix(1.00266 0 0 1 545 365.034)"/><path d="M102.731 50.4123 204.69 177.489" stroke="#2D2D2D" stroke-width="0.886604" stroke-linecap="butt" stroke-linejoin="miter" stroke-miterlimit="10" stroke-opacity="1" fill="none" fill-rule="nonzero" transform="matrix(1.00266 0 0 1 545 365.034)"/><path d="M102.731 50.4123 0.771345 177.489" stroke="#2D2D2D" stroke-width="0.886604" stroke-linecap="butt" stroke-linejoin="miter" stroke-miterlimit="10" stroke-opacity="1" fill="none" fill-rule="nonzero" transform="matrix(1.00266 0 0 1 545 365.034)"/><path d="M102.731 54.2247 204.69 177.489" stroke="#2D2D2D" stroke-width="0.886604" stroke-linecap="butt" stroke-linejoin="miter" stroke-miterlimit="10" stroke-opacity="1" fill="none" fill-rule="nonzero" transform="matrix(1.00266 0 0 1 545 365.034)"/><path d="M102.731 54.2247 0.771345 177.489" stroke="#2D2D2D" stroke-width="0.886604" stroke-linecap="butt" stroke-linejoin="miter" stroke-miterlimit="10" stroke-opacity="1" fill="none" fill-rule="nonzero" transform="matrix(1.00266 0 0 1 545 365.034)"/><path d="M102.731 58.0371 204.69 177.489" stroke="#2D2D2D" stroke-width="0.886604" stroke-linecap="butt" stroke-linejoin="miter" stroke-miterlimit="10" stroke-opacity="1" fill="none" fill-rule="nonzero" transform="matrix(1.00266 0 0 1 545 365.034)"/><path d="M102.731 58.0371 0.771345 177.489" stroke="#2D2D2D" stroke-width="0.886604" stroke-linecap="butt" stroke-linejoin="miter" stroke-miterlimit="10" stroke-opacity="1" fill="none" fill-rule="nonzero" transform="matrix(1.00266 0 0 1 545 365.034)"/><path d="M102.731 61.8495 204.69 177.489" stroke="#2D2D2D" stroke-width="0.886604" stroke-linecap="butt" stroke-linejoin="miter" stroke-miterlimit="10" stroke-opacity="1" fill="none" fill-rule="nonzero" transform="matrix(1.00266 0 0 1 545 365.034)"/><path d="M102.731 61.8495 0.771345 177.489" stroke="#2D2D2D" stroke-width="0.886604" stroke-linecap="butt" stroke-linejoin="miter" stroke-miterlimit="10" stroke-opacity="1" fill="none" fill-rule="nonzero" transform="matrix(1.00266 0 0 1 545 365.034)"/><path d="M102.731 65.653 204.69 177.489" stroke="#2D2D2D" stroke-width="0.886604" stroke-linecap="butt" stroke-linejoin="miter" stroke-miterlimit="10" stroke-opacity="1" fill="none" fill-rule="nonzero" transform="matrix(1.00266 0 0 1 545 365.034)"/><path d="M102.731 65.653 0.771345 177.489" stroke="#2D2D2D" stroke-width="0.886604" stroke-linecap="butt" stroke-linejoin="miter" stroke-miterlimit="10" stroke-opacity="1" fill="none" fill-rule="nonzero" transform="matrix(1.00266 0 0 1 545 365.034)"/><path d="M102.731 69.4654 204.69 177.489" stroke="#2D2D2D" stroke-width="0.886604" stroke-linecap="butt" stroke-linejoin="miter" stroke-miterlimit="10" stroke-opacity="1" fill="none" fill-rule="nonzero" transform="matrix(1.00266 0 0 1 545 365.034)"/><path d="M102.731 69.4654 0.771345 177.489" stroke="#2D2D2D" stroke-width="0.886604" stroke-linecap="butt" stroke-linejoin="miter" stroke-miterlimit="10" stroke-opacity="1" fill="none" fill-rule="nonzero" transform="matrix(1.00266 0 0 1 545 365.034)"/><path d="M102.731 73.2778 204.69 177.489" stroke="#2D2D2D" stroke-width="0.886604" stroke-linecap="butt" stroke-linejoin="miter" stroke-miterlimit="10" stroke-opacity="1" fill="none" fill-rule="nonzero" transform="matrix(1.00266 0 0 1 545 365.034)"/><path d="M102.731 73.2778 0.771345 177.489" stroke="#2D2D2D" stroke-width="0.886604" stroke-linecap="butt" stroke-linejoin="miter" stroke-miterlimit="10" stroke-opacity="1" fill="none" fill-rule="nonzero" transform="matrix(1.00266 0 0 1 545 365.034)"/><path d="M102.731 77.0814 204.69 177.489" stroke="#2D2D2D" stroke-width="0.886604" stroke-linecap="butt" stroke-linejoin="miter" stroke-miterlimit="10" stroke-opacity="1" fill="none" fill-rule="nonzero" transform="matrix(1.00266 0 0 1 545 365.034)"/><path d="M102.731 77.0814 0.771345 177.489" stroke="#2D2D2D" stroke-width="0.886604" stroke-linecap="butt" stroke-linejoin="miter" stroke-miterlimit="10" stroke-opacity="1" fill="none" fill-rule="nonzero" transform="matrix(1.00266 0 0 1 545 365.034)"/><path d="M102.731 80.8937 204.69 177.489" stroke="#2D2D2D" stroke-width="0.886604" stroke-linecap="butt" stroke-linejoin="miter" stroke-miterlimit="10" stroke-opacity="1" fill="none" fill-rule="nonzero" transform="matrix(1.00266 0 0 1 545 365.034)"/><path d="M102.731 80.8937 0.771345 177.489" stroke="#2D2D2D" stroke-width="0.886604" stroke-linecap="butt" stroke-linejoin="miter" stroke-miterlimit="10" stroke-opacity="1" fill="none" fill-rule="nonzero" transform="matrix(1.00266 0 0 1 545 365.034)"/><path d="M102.731 84.7061 204.69 177.489" stroke="#2D2D2D" stroke-width="0.886604" stroke-linecap="butt" stroke-linejoin="miter" stroke-miterlimit="10" stroke-opacity="1" fill="none" fill-rule="nonzero" transform="matrix(1.00266 0 0 1 545 365.034)"/><path d="M102.731 84.7061 0.771345 177.489" stroke="#2D2D2D" stroke-width="0.886604" stroke-linecap="butt" stroke-linejoin="miter" stroke-miterlimit="10" stroke-opacity="1" fill="none" fill-rule="nonzero" transform="matrix(1.00266 0 0 1 545 365.034)"/><path d="M102.731 88.5185 204.69 177.489" stroke="#2D2D2D" stroke-width="0.886604" stroke-linecap="butt" stroke-linejoin="miter" stroke-miterlimit="10" stroke-opacity="1" fill="none" fill-rule="nonzero" transform="matrix(1.00266 0 0 1 545 365.034)"/><path d="M102.731 88.5185 0.771345 177.489" stroke="#2D2D2D" stroke-width="0.886604" stroke-linecap="butt" stroke-linejoin="miter" stroke-miterlimit="10" stroke-opacity="1" fill="none" fill-rule="nonzero" transform="matrix(1.00266 0 0 1 545 365.034)"/><path d="M102.731 92.3221 204.69 177.489" stroke="#2D2D2D" stroke-width="0.886604" stroke-linecap="butt" stroke-linejoin="miter" stroke-miterlimit="10" stroke-opacity="1" fill="none" fill-rule="nonzero" transform="matrix(1.00266 0 0 1 545 365.034)"/><path d="M102.731 92.3221 0.771345 177.489" stroke="#2D2D2D" stroke-width="0.886604" stroke-linecap="butt" stroke-linejoin="miter" stroke-miterlimit="10" stroke-opacity="1" fill="none" fill-rule="nonzero" transform="matrix(1.00266 0 0 1 545 365.034)"/><path d="M102.731 96.1345 204.69 177.489" stroke="#2D2D2D" stroke-width="0.886604" stroke-linecap="butt" stroke-linejoin="miter" stroke-miterlimit="10" stroke-opacity="1" fill="none" fill-rule="nonzero" transform="matrix(1.00266 0 0 1 545 365.034)"/><path d="M102.731 96.1345 0.771345 177.489" stroke="#2D2D2D" stroke-width="0.886604" stroke-linecap="butt" stroke-linejoin="miter" stroke-miterlimit="10" stroke-opacity="1" fill="none" fill-rule="nonzero" transform="matrix(1.00266 0 0 1 545 365.034)"/><path d="M102.731 99.9469 204.69 177.489" stroke="#2D2D2D" stroke-width="0.886604" stroke-linecap="butt" stroke-linejoin="miter" stroke-miterlimit="10" stroke-opacity="1" fill="none" fill-rule="nonzero" transform="matrix(1.00266 0 0 1 545 365.034)"/><path d="M102.731 99.9469 0.771345 177.489" stroke="#2D2D2D" stroke-width="0.886604" stroke-linecap="butt" stroke-linejoin="miter" stroke-miterlimit="10" stroke-opacity="1" fill="none" fill-rule="nonzero" transform="matrix(1.00266 0 0 1 545 365.034)"/><path d="M102.731 103.759 204.69 177.489" stroke="#2D2D2D" stroke-width="0.886604" stroke-linecap="butt" stroke-linejoin="miter" stroke-miterlimit="10" stroke-opacity="1" fill="none" fill-rule="nonzero" transform="matrix(1.00266 0 0 1 545 365.034)"/><path d="M102.731 103.759 0.771345 177.489" stroke="#2D2D2D" stroke-width="0.886604" stroke-linecap="butt" stroke-linejoin="miter" stroke-miterlimit="10" stroke-opacity="1" fill="none" fill-rule="nonzero" transform="matrix(1.00266 0 0 1 545 365.034)"/><path d="M102.731 107.563 204.69 177.489" stroke="#2D2D2D" stroke-width="0.886604" stroke-linecap="butt" stroke-linejoin="miter" stroke-miterlimit="10" stroke-opacity="1" fill="none" fill-rule="nonzero" transform="matrix(1.00266 0 0 1 545 365.034)"/><path d="M102.731 107.563 0.771345 177.489" stroke="#2D2D2D" stroke-width="0.886604" stroke-linecap="butt" stroke-linejoin="miter" stroke-miterlimit="10" stroke-opacity="1" fill="none" fill-rule="nonzero" transform="matrix(1.00266 0 0 1 545 365.034)"/><path d="M102.731 111.375 204.69 177.489" stroke="#2D2D2D" stroke-width="0.886604" stroke-linecap="butt" stroke-linejoin="miter" stroke-miterlimit="10" stroke-opacity="1" fill="none" fill-rule="nonzero" transform="matrix(1.00266 0 0 1 545 365.034)"/><path d="M102.731 111.375 0.771345 177.489" stroke="#2D2D2D" stroke-width="0.886604" stroke-linecap="butt" stroke-linejoin="miter" stroke-miterlimit="10" stroke-opacity="1" fill="none" fill-rule="nonzero" transform="matrix(1.00266 0 0 1 545 365.034)"/><path d="M102.731 115.188 204.69 177.489" stroke="#2D2D2D" stroke-width="0.886604" stroke-linecap="butt" stroke-linejoin="miter" stroke-miterlimit="10" stroke-opacity="1" fill="none" fill-rule="nonzero" transform="matrix(1.00266 0 0 1 545 365.034)"/><path d="M102.731 115.188 0.771345 177.489" stroke="#2D2D2D" stroke-width="0.886604" stroke-linecap="butt" stroke-linejoin="miter" stroke-miterlimit="10" stroke-opacity="1" fill="none" fill-rule="nonzero" transform="matrix(1.00266 0 0 1 545 365.034)"/><path d="M102.731 118.991 204.69 177.489" stroke="#2D2D2D" stroke-width="0.886604" stroke-linecap="butt" stroke-linejoin="miter" stroke-miterlimit="10" stroke-opacity="1" fill="none" fill-rule="nonzero" transform="matrix(1.00266 0 0 1 545 365.034)"/><path d="M102.731 118.991 0.771345 177.489" stroke="#2D2D2D" stroke-width="0.886604" stroke-linecap="butt" stroke-linejoin="miter" stroke-miterlimit="10" stroke-opacity="1" fill="none" fill-rule="nonzero" transform="matrix(1.00266 0 0 1 545 365.034)"/><path d="M102.731 122.804 204.69 177.489" stroke="#2D2D2D" stroke-width="0.886604" stroke-linecap="butt" stroke-linejoin="miter" stroke-miterlimit="10" stroke-opacity="1" fill="none" fill-rule="nonzero" transform="matrix(1.00266 0 0 1 545 365.034)"/><path d="M102.731 122.804 0.771345 177.489" stroke="#2D2D2D" stroke-width="0.886604" stroke-linecap="butt" stroke-linejoin="miter" stroke-miterlimit="10" stroke-opacity="1" fill="none" fill-rule="nonzero" transform="matrix(1.00266 0 0 1 545 365.034)"/><path d="M102.731 126.616 204.69 177.489" stroke="#2D2D2D" stroke-width="0.886604" stroke-linecap="butt" stroke-linejoin="miter" stroke-miterlimit="10" stroke-opacity="1" fill="none" fill-rule="nonzero" transform="matrix(1.00266 0 0 1 545 365.034)"/><path d="M102.731 126.616 0.771345 177.489" stroke="#2D2D2D" stroke-width="0.886604" stroke-linecap="butt" stroke-linejoin="miter" stroke-miterlimit="10" stroke-opacity="1" fill="none" fill-rule="nonzero" transform="matrix(1.00266 0 0 1 545 365.034)"/><path d="M102.731 130.428 204.69 177.489" stroke="#2D2D2D" stroke-width="0.886604" stroke-linecap="butt" stroke-linejoin="miter" stroke-miterlimit="10" stroke-opacity="1" fill="none" fill-rule="nonzero" transform="matrix(1.00266 0 0 1 545 365.034)"/><path d="M102.731 130.428 0.771345 177.489" stroke="#2D2D2D" stroke-width="0.886604" stroke-linecap="butt" stroke-linejoin="miter" stroke-miterlimit="10" stroke-opacity="1" fill="none" fill-rule="nonzero" transform="matrix(1.00266 0 0 1 545 365.034)"/></g></g></g></g></g></svg>